<svg xmlns="http://www.w3.org/2000/svg" xmlns:xlink="http://www.w3.org/1999/xlink" width="1615" height="61" fill="none"><defs><path id="reuse-0" fill="#42282E" d="M368.4 62.6c-.4 1.8-4.4 1.8-4.9 0 .5-1.8 4.5-1.8 5 0Z"/><path id="reuse-1" fill="#91BDFF" d="M299.7 50.2c2 1.1 2 3 0 4.1a8 8 0 0 1-7.2 0c-2-1.1-2-3 0-4.1a8 8 0 0 1 7.2 0Z"/><path id="reuse-2" fill="#42282E" d="M291.3 49.5c-1.4 0-2.7-.3-3.6-.8-1-.6-1.6-1.4-1.6-2.2 0-.8.6-1.5 1.5-2.1 1-.6 2.3-.9 3.7-.9 1.3 0 2.6.3 3.6.9 1 .6 1.5 1.3 1.5 2.1s-.5 1.6-1.5 2.2c-1 .5-2.2.8-3.6.8Zm0-5.8c-1.4 0-2.6.3-3.6.8-1 .6-1.4 1.3-1.4 2 0 .8.5 1.5 1.4 2 1 .6 2.3.9 3.6.9 1.4 0 2.6-.3 3.6-.9.9-.5 1.4-1.2 1.4-2 0-.7-.5-1.4-1.5-2-1-.5-2.2-.8-3.5-.8Z"/><path id="reuse-3" fill="#42282E" d="M291.3 53.7c-1.4 0-2.7-.3-3.6-.9-1-.5-1.6-1.3-1.6-2.1s.6-1.6 1.5-2.1c1-.6 2.3-1 3.7-1 1.3 0 2.6.4 3.6 1 1 .5 1.5 1.3 1.5 2 0 .9-.5 1.7-1.5 2.2-1 .6-2.2.9-3.6.9Zm0-5.9c-1.4 0-2.6.3-3.6.9-1 .5-1.4 1.2-1.4 2 0 .7.5 1.5 1.4 2 1 .5 2.3.8 3.6.8 1.4 0 2.6-.3 3.6-.8.9-.5 1.4-1.3 1.4-2 0-.8-.5-1.5-1.5-2-1-.6-2.2-.9-3.5-.9ZM291.3 41.2c-1.4 0-2.7-.3-3.6-.8-1-.6-1.6-1.4-1.6-2.2 0-.8.6-1.6 1.5-2.1 1-.6 2.3-.9 3.7-.9 1.3 0 2.6.3 3.6.9 1 .6 1.5 1.3 1.5 2.1s-.5 1.6-1.5 2.1c-1 .6-2.2 1-3.6 1Zm0-5.8c-1.4 0-2.6.3-3.6.8s-1.4 1.3-1.4 2c0 .8.5 1.5 1.4 2 1 .6 2.3.9 3.6.9 1.3 0 2.6-.3 3.6-.9.9-.5 1.4-1.2 1.4-2 0-.7-.5-1.5-1.5-2s-2.2-.8-3.5-.8Z"/><path id="reuse-4" fill="#42282E" d="M291.3 45.4c-1.4 0-2.7-.3-3.6-.9-1-.6-1.6-1.3-1.6-2.1s.6-1.6 1.5-2.2c1-.5 2.3-.8 3.7-.8 1.3 0 2.6.3 3.6.8 1 .6 1.5 1.4 1.5 2.2 0 .8-.5 1.5-1.5 2.1-1 .6-2.2.9-3.6.9Zm0-5.9c-1.4 0-2.6.3-3.6.9-1 .5-1.4 1.2-1.4 2 0 .7.5 1.4 1.4 2 1 .5 2.3.8 3.6.8 1.4 0 2.6-.3 3.6-.8.9-.6 1.4-1.3 1.4-2 0-.8-.5-1.5-1.5-2-1-.6-2.2-.9-3.5-.9Z"/><path id="reuse-5" fill="#A0F" d="M307.7 17.7c0-.2-.1-.2-.2-.3l-8 1.7.1.3 8.1-1.7ZM306 16.5l-.3-.2h-.2l-6.7 1.4.1.4 7.1-1.5c.1 0 .1 0 0-.1ZM300.1 20l7.9-1.6.2-.2-.4-.2-8 1.7.3.3ZM304.2 15.9h-.2l-5.4 1.1v.4l5.6-1.2c.3 0 .3-.2 0-.3ZM306.8 16.9h-.3l-7.4 1.5.1.3 7.5-1.5c.2 0 .3-.2.1-.3ZM298.5 16.7h.1l3-.7c.3 0 .2-.3-.1-.3h-.1l-2.9.6v.4ZM302.4 22.5l5.1-1a.3.3 0 0 0 .2-.2c.1-.1-.1-.3-.4-.2l-5.2 1v.1l.3.3ZM305.7 22.5c.4-.1.1-.4-.2-.3l-2.8.6.4.3 2.6-.6ZM308.1 20.5h.2c.1-.2-.1-.3-.4-.3l-6.5 1.4.4.3 6.3-1.4ZM308.3 19l.2-.1c0-.2-.2-.2-.4-.2l-7.8 1.6.3.4 7.7-1.7ZM308.6 19.6l-.4-.2-7.3 1.6.3.3 7.2-1.5.2-.2Z"/><path id="reuse-6" fill="#A0F" d="m330 16.4 6.6-3.8-1.1-.7-6.7 3.9 1.2.6Z"/><path id="reuse-7" fill="#A0F" d="m330 20.6-1.2-.7v-4.1l1.2.6v4.2Z" style="mix-blend-mode:multiply"/><path id="reuse-8" fill="#311B92" d="M290.5 33c0 .5-.6.5-.8 1.1l-.6.7.6.2.9-.2V33Z"/><path id="reuse-9" fill="#91BDFF" d="M304.5 40.4c-.3.5-.3 1 0 1.6.8 1.3 2.8 2 4.8 2 .4-1.7-.1-3.5-1.9-5.4-1.2.3-2.4.9-3 1.8Z"/><path id="reuse-10" fill="#40A8FF" d="M301 38.6c-1.6 0-3.2-.4-4.4-1-1.2-.8-2-1.7-2-2.7 0-1 .8-2 2-2.7 1.2-.7 2.8-1 4.5-1 1.7 0 3.2.3 4.4 1 1.3.7 2 1.6 2 2.7 0 1-.7 2-2 2.6-1.2.7-2.7 1.1-4.4 1.1Zm0-7.2c-1.6 0-3.1.4-4.3 1-1 .7-1.7 1.6-1.7 2.5 0 .9.6 1.7 1.7 2.4 1.2.6 2.7 1 4.4 1 1.6 0 3.1-.4 4.3-1 1.1-.7 1.7-1.5 1.7-2.4 0-1-.6-1.8-1.7-2.4-1.2-.7-2.7-1-4.3-1Z"/><path id="reuse-11" fill="#A0F" d="M261.3 36.6c2 0 3.6-1 3.6-2.1s-1.6-2-3.6-2-3.6.9-3.6 2 1.6 2 3.6 2Z"/><path id="reuse-12" fill="#F0F" d="M268.5 60.5c-.2 0 0 .4.1.5h1.6c.2 0 .1-.3 0-.4H268.4Z"/><path id="reuse-13" fill="#fff" d="M1288.4 33.4a1.8 1.8 0 0 0 0-3.6c-1 0-1.8.8-1.8 1.8s.8 1.8 1.8 1.8Z"/><path id="reuse-14" fill="#fff" d="M1329.5 33.4a1.8 1.8 0 0 0 0-3.6c-1 0-1.7.8-1.7 1.8s.7 1.8 1.7 1.8Z"/><path id="reuse-15" fill="#fff" d="M1411.8 33.4a1.8 1.8 0 1 0 0-3.6 1.8 1.8 0 0 0 0 3.6Z"/><path id="reuse-16" fill="#fff" d="M1494 33.4c1 0 1.8-.8 1.8-1.8a1.8 1.8 0 1 0-3.5 0c0 1 .8 1.8 1.8 1.8Z"/><path id="reuse-17" fill="#fff" d="M1535.2 33.4a1.8 1.8 0 0 0 0-3.6c-1 0-1.8.8-1.8 1.8s.8 1.8 1.8 1.8Z"/><path id="reuse-18" fill="#fff" d="M1453 33.4a1.8 1.8 0 0 0 0-3.6c-1 0-1.8.8-1.8 1.8s.8 1.8 1.7 1.8Z"/><path id="reuse-19" fill="#fff" d="M1370.7 33.4c1 0 1.7-.8 1.7-1.8a1.8 1.8 0 1 0-3.5 0c0 1 .8 1.8 1.8 1.8Z"/></defs><g clip-path="url(#a)"><path fill="url(#b)" fill-rule="evenodd" d="M284.5-5.4a1.5 1.5 0 0 1 2-1.5 1.5 1.5 0 0 1 1 1.5A1.5 1.5 0 0 1 286-4a1.5 1.5 0 0 1-1.5-1.4Zm12.3-1c.6-.6 1.6-.6 2.2 0 .6.5.6 1.5 0 2-.6.7-1.6.7-2.2 0-.6-.5-.6-1.5 0-2Zm11.5 1a1.5 1.5 0 0 1 1.5-1.4 1.5 1.5 0 0 1 1.5 1.4 1.5 1.5 0 0 1-1.5 1.4 1.5 1.5 0 0 1-1.5-1.4Zm12.4-1c-.3.3-.5.6-.5 1a1.5 1.5 0 0 0 1.5 1.4 1.5 1.5 0 0 0 1.5-1.4 1.5 1.5 0 0 0-1.5-1.4c-.4 0-.7.1-1 .4Zm-12.3 15a1.5 1.5 0 0 0 0 1.1 1.5 1.5 0 0 0 1.4 1 1.5 1.5 0 0 0 1.5-1 1.5 1.5 0 0 0-1.5-2 1.5 1.5 0 0 0-1.4.9Zm11.8.6a1.5 1.5 0 0 1 1.5-1.6 1.5 1.5 0 0 1 1.4 1.6 1.5 1.5 0 0 1-1.4 1.5 1.5 1.5 0 0 1-1.5-1.5ZM248.8 23a1.5 1.5 0 0 0 1.4 2 1.5 1.5 0 0 0 1.6-1.4 1.5 1.5 0 0 0-.5-1.1 1.5 1.5 0 0 0-2.5.5Zm59.5.6a1.5 1.5 0 0 1 .4-1.1 1.5 1.5 0 0 1 2.6 1.1 1.5 1.5 0 0 1-1.5 1.4 1.5 1.5 0 0 1-1.5-1.4Zm12 0a1.5 1.5 0 0 1 1.4-1.4 1.5 1.5 0 0 1 1.5 1.4 1.5 1.5 0 0 1-1.5 1.4 1.5 1.5 0 0 1-1.5-1.4Zm-23.4-1c-.3.3-.5.6-.5 1a1.5 1.5 0 0 0 1.5 1.4 1.5 1.5 0 0 0 1.5-1.4 1.5 1.5 0 0 0-1.5-1.4c-.4 0-.8.1-1 .4Zm-12.4 1a1.5 1.5 0 0 1 1.5-1.4 1.5 1.5 0 0 1 1.5 1.4 1.5 1.5 0 0 1-1.5 1.4 1.5 1.5 0 0 1-1.5-1.4Zm-11.9-.6a1.5 1.5 0 0 0 1.4 2 1.5 1.5 0 0 0 1.6-1.4 1.5 1.5 0 0 0-2.2-1.5 1.5 1.5 0 0 0-.8 1Zm-12 .6a1.5 1.5 0 0 1 1.6-1.4 1.5 1.5 0 0 1 1.5 1.4 1.5 1.5 0 0 1-.4 1.1 1.5 1.5 0 0 1-2.7-1.1Zm35.8-14.5a1.5 1.5 0 0 1 1-1.4l.5-.2a1.5 1.5 0 0 1 1.4 1.6 1.5 1.5 0 0 1-1.4 1.5 1.5 1.5 0 0 1-1.4-1l-.1-.5Zm-11.8-.6a1.5 1.5 0 0 0 0 1.1 1.5 1.5 0 0 0 1.4 1 1.5 1.5 0 0 0 1.4-1.5 1.5 1.5 0 0 0-1.4-1.6 1.5 1.5 0 0 0-1.4 1Zm-12 .6a1.5 1.5 0 0 1 1.5-1.6 1.5 1.5 0 0 1 1.4 1.6 1.5 1.5 0 0 1-1.4 1.5 1.5 1.5 0 0 1-1.4-1l-.1-.5Zm-11.9-.6a1.5 1.5 0 0 0 0 1.2 1.5 1.5 0 0 0 1.4.9 1.5 1.5 0 0 0 1.5-1.5 1.5 1.5 0 0 0-1.5-1.5 1.5 1.5 0 0 0-1.4.9Zm-12 .6a1.5 1.5 0 0 1 1.5-1.6 1.5 1.5 0 0 1 1.5 1.6 1.5 1.5 0 0 1-1.5 1.5 1.5 1.5 0 0 1-1.5-1.5ZM273-6.4c-.3.3-.4.6-.4 1A1.5 1.5 0 0 0 274-4a1.5 1.5 0 0 0 1.5-1.4 1.5 1.5 0 0 0-1.5-1.4c-.4 0-.8.1-1 .4Zm-9.8 0c-.6-.6-1.5-.6-2.1 0-.6.5-.6 1.5 0 2 .6.7 1.5.7 2.1 0 .6-.5.6-1.5 0-2Zm-14 0c-.3.3-.5.6-.5 1a1.5 1.5 0 0 0 1.5 1.4 1.5 1.5 0 0 0 1.5-1.4 1.5 1.5 0 0 0-1.5-1.4c-.4 0-.7.1-1 .4Zm-12 29c-.2.3-.4.7-.4 1.1a1.5 1.5 0 0 0 1.6 1.4 1.5 1.5 0 0 0 1.5-1.4 1.5 1.5 0 0 0-1.6-1.5c-.4 0-.8.1-1 .4Zm-12.3 1a1.5 1.5 0 0 1 1.5-1.3 1.5 1.5 0 0 1 1.6 1.4 1.5 1.5 0 0 1-2.2 1.5 1.5 1.5 0 0 1-.9-1.5Zm-11.7-.7a1.5 1.5 0 0 0 2.1 2 1.5 1.5 0 1 0-2-2Zm-9.6-.3c-.5-.6-1.5-.6-2.1 0-.6.6-.6 1.6 0 2.2.6.6 1.6.6 2.1 0 .6-.6.6-1.6 0-2.2Zm-14.2.3a1.5 1.5 0 0 0 1.3 2.3 1.5 1.5 0 0 0 1.4-1.8 1.5 1.5 0 0 0-1.1-1.2 1.5 1.5 0 0 0-1.6.7Zm-12.2.8a1.5 1.5 0 0 1 1-1.4 1.5 1.5 0 0 1 2 1.1 1.5 1.5 0 0 1-.6 1.6 1.5 1.5 0 0 1-2.4-1.3Zm-11.4-1c.5-.7 1.5-.7 2.1 0 .6.5.6 1.5 0 2-.6.7-1.6.7-2.1 0-.6-.5-.6-1.5 0-2Zm-12.4 1a1.5 1.5 0 0 1 1.8-1.5 1.5 1.5 0 0 1 1.2 1.2 1.5 1.5 0 0 1-1.5 1.8 1.5 1.5 0 0 1-1.5-1.5Zm-11.7-.8a1.5 1.5 0 0 0 .2 1.9 1.5 1.5 0 0 0 2.5-.5 1.5 1.5 0 0 0-1.1-2 1.5 1.5 0 0 0-1.6.6ZM237 8.6a1.5 1.5 0 0 0 0 1.1 1.5 1.5 0 0 0 1.4 1 1.5 1.5 0 0 0 1.6-1.5 1.5 1.5 0 0 0-.4-1.1 1.5 1.5 0 0 0-1.2-.5 1.5 1.5 0 0 0-1.4 1Zm-12 .6a1.5 1.5 0 0 1 1-1.4l.5-.2a1.5 1.5 0 0 1 1.4 1.6 1.5 1.5 0 0 1-1.4 1.5 1.5 1.5 0 0 1-1.5-1.5ZM213 8.5a1.5 1.5 0 0 0 1.4 2.1 1.5 1.5 0 0 0 1.4-1.5 1.5 1.5 0 0 0-1.4-1.5 1.5 1.5 0 0 0-1.4 1Zm-9.4-.4c-.6-.6-1.6-.6-2.2 0-.6.6-.6 1.5 0 2.1.6.6 1.6.6 2.2 0 .5-.6.5-1.5 0-2.1Zm-14.4.5a1.5 1.5 0 0 0 1.4 2 1.5 1.5 0 0 0 1.4-1.4 1.5 1.5 0 0 0-1.4-1.6 1.5 1.5 0 0 0-1.4 1Zm-12 .6a1.5 1.5 0 0 1 1.4-1.6 1.5 1.5 0 0 1 1.5 1.6 1.5 1.5 0 0 1-1.4 1.5 1.5 1.5 0 0 1-1.6-1.5ZM165.7 8c.5-.6 1.5-.6 2.1 0 .6.6.6 1.5 0 2.1-.6.6-1.6.6-2.1 0-.6-.6-.6-1.5 0-2.1Zm-12.4 1a1.5 1.5 0 0 1 1-1.3l.5-.2a1.5 1.5 0 0 1 1.4 1.6 1.5 1.5 0 0 1-1.4 1.5 1.5 1.5 0 0 1-1.4-1v-.5Zm-11.8-.5a1.5 1.5 0 0 0 0 1.1 1.5 1.5 0 0 0 1.4 1 1.5 1.5 0 0 0 1.4-1.5 1.5 1.5 0 0 0-1.4-1.6 1.5 1.5 0 0 0-1.4 1Zm-12 .6a1.5 1.5 0 0 1 1-1.4l.5-.2a1.5 1.5 0 0 1 1.4 1.6 1.5 1.5 0 0 1-1.4 1.5 1.5 1.5 0 0 1-1.5-1.5Zm-11.8-.6a1.5 1.5 0 0 0 0 1.1 1.5 1.5 0 0 0 .8.8l.6.2a1.5 1.5 0 0 0 1.4-1.5 1.5 1.5 0 0 0-1.4-1.6 1.5 1.5 0 0 0-1.4 1Zm119.5-15c-.3.3-.5.6-.5 1a1.5 1.5 0 0 0 1.5 1.4 1.5 1.5 0 0 0 1.5-1.4 1.5 1.5 0 0 0-1.5-1.4c-.4 0-.7.1-1 .4Zm-9.8 0c-.6-.6-1.6-.6-2.2 0-.6.5-.6 1.5 0 2 .6.7 1.6.7 2.2 0 .6-.5.6-1.5 0-2ZM213-6a1.5 1.5 0 0 0 .3 1.7 1.5 1.5 0 0 0 2.6-1 1.5 1.5 0 0 0-1.5-1.6 1.5 1.5 0 0 0-1.4 1Zm-12 .6a1.5 1.5 0 0 1 1.5-1.5 1.5 1.5 0 0 1 1.5 1.5 1.5 1.5 0 0 1-1.5 1.5 1.5 1.5 0 0 1-1.5-1.5Zm-11.5-1c.6-.6 1.5-.6 2.1 0 .6.5.6 1.5 0 2-.6.7-1.5.7-2.1 0-.6-.5-.6-1.5 0-2Zm-9.8 0c-.6-.6-1.5-.6-2.1 0-.6.5-.6 1.5 0 2 .6.7 1.5.7 2.1 0 .6-.5.6-1.5 0-2Zm-14.4.4a1.5 1.5 0 0 0 .4 1.7 1.5 1.5 0 0 0 2.5-1 1.5 1.5 0 0 0-1.5-1.6 1.5 1.5 0 0 0-1.4 1Zm-12 .6a1.5 1.5 0 0 1 1.5-1.5 1.5 1.5 0 0 1 1.5 1.5 1.5 1.5 0 0 1-1.5 1.5 1.5 1.5 0 0 1-1.5-1.5Zm-11.5-1c.6-.6 1.6-.6 2.2 0 .6.5.6 1.5 0 2-.6.7-1.6.7-2.2 0-.6-.5-.6-1.5 0-2Zm-12.3 1a1.5 1.5 0 0 1 1.5-1.5 1.5 1.5 0 0 1 1.4 1 1.5 1.5 0 0 1-.3 1.6 1.5 1.5 0 0 1-2.6-1Zm-11.5-1c-.3.2-.4.6-.4 1a1.5 1.5 0 0 0 1.5 1.5 1.5 1.5 0 0 0 1.4-1.5 1.5 1.5 0 0 0-1.4-1.5c-.4 0-.8.2-1.1.5ZM284.7 38a1.5 1.5 0 0 1 2.2-1.5 1.5 1.5 0 0 1 .9 1.5 1.5 1.5 0 0 1-1.6 1.4 1.5 1.5 0 0 1-1.5-1.4Zm12.4-1c.6-.6 1.5-.6 2.1 0 .6.5.6 1.5 0 2-.6.7-1.5.7-2.1 0-.6-.5-.6-1.5 0-2Zm11.5 1a1.5 1.5 0 0 1 1.5-1.4 1.5 1.5 0 0 1 1.5 1.4 1.5 1.5 0 0 1-1.5 1.4 1.5 1.5 0 0 1-1.5-1.4Zm12.4-1c-.3.3-.5.6-.5 1a1.5 1.5 0 0 0 1.5 1.4 1.5 1.5 0 0 0 1.5-1.4 1.5 1.5 0 0 0-1.5-1.4c-.4 0-.8.1-1 .4Zm-12.3 15a1.5 1.5 0 0 0 0 1.1 1.5 1.5 0 0 0 1.4 1 1.5 1.5 0 0 0 1.5-1 1.5 1.5 0 0 0-1.5-2 1.5 1.5 0 0 0-1.4.9Zm11.8.6A1.5 1.5 0 0 1 322 51a1.5 1.5 0 0 1 1.4 1.6 1.5 1.5 0 0 1-1.4 1.5 1.5 1.5 0 0 1-1.5-1.5ZM249 66.6a1.5 1.5 0 0 0 1.4 2 1.5 1.5 0 0 0 1.5-1.4 1.5 1.5 0 0 0-.4-1.1 1.5 1.5 0 0 0-2.5.5Zm59.5.6a1.5 1.5 0 0 1 .4-1.1 1.5 1.5 0 0 1 2.6 1.1 1.5 1.5 0 0 1-1.5 1.4 1.5 1.5 0 0 1-1.5-1.4Zm11.9 0a1.5 1.5 0 0 1 1.5-1.4 1.5 1.5 0 0 1 1.5 1.4 1.5 1.5 0 0 1-1.5 1.4 1.5 1.5 0 0 1-1.5-1.4Zm-23.4-1c-.3.3-.4.6-.5 1a1.5 1.5 0 0 0 1.6 1.4 1.5 1.5 0 0 0 1.5-1.4 1.5 1.5 0 0 0-1.5-1.4c-.4 0-.8.1-1 .4Zm-12.4 1a1.5 1.5 0 0 1 1.5-1.4 1.5 1.5 0 0 1 1.6 1.4 1.5 1.5 0 0 1-1.6 1.4 1.5 1.5 0 0 1-1.5-1.4Zm-11.8-.6a1.5 1.5 0 0 0 .4 1.6 1.5 1.5 0 0 0 2.4-1.6 1.5 1.5 0 0 0-2.8 0Zm-12 .6a1.5 1.5 0 0 1 1.5-1.4 1.5 1.5 0 0 1 1.5 1.4 1.5 1.5 0 0 1-1.5 1.6 1.5 1.5 0 0 1-1.5-1.6Zm35.7-14.5a1.5 1.5 0 0 1 1-1.4l.6-.2a1.5 1.5 0 0 1 1.4 1.6 1.5 1.5 0 0 1-1.4 1.5 1.5 1.5 0 0 1-1.4-1l-.2-.5Zm-11.8-.6a1.5 1.5 0 0 0 0 1.1 1.5 1.5 0 0 0 1.4 1 1.5 1.5 0 0 0 1.5-1.5 1.5 1.5 0 0 0-1.5-1.6 1.5 1.5 0 0 0-1.4 1Zm-12 .6a1.5 1.5 0 0 1 1.5-1.6 1.5 1.5 0 0 1 1.5 1.6 1.5 1.5 0 0 1-1.5 1.5 1.5 1.5 0 0 1-1.5-1.5ZM261 52a1.5 1.5 0 0 0 0 1.2 1.5 1.5 0 0 0 1.4.9 1.5 1.5 0 0 0 1.4-1.5 1.5 1.5 0 0 0-1.4-1.5 1.5 1.5 0 0 0-1.4.9Zm-12 .6a1.5 1.5 0 0 1 1.5-1.6 1.5 1.5 0 0 1 1.4 1.6 1.5 1.5 0 0 1-1.4 1.5 1.5 1.5 0 0 1-1.5-1.5ZM273.3 37c-.3.3-.5.6-.5 1a1.5 1.5 0 0 0 1.5 1.4 1.5 1.5 0 0 0 1.5-1.4 1.5 1.5 0 0 0-1.5-1.4c-.4 0-.7.1-1 .4Zm-9.8 0c-.6-.6-1.6-.6-2.2 0-.5.5-.5 1.5 0 2 .6.7 1.6.7 2.2 0 .6-.5.6-1.5 0-2Zm-14 0c-.3.3-.5.6-.5 1a1.5 1.5 0 0 0 1.5 1.4 1.5 1.5 0 0 0 1.5-1.4 1.5 1.5 0 0 0-1.5-1.4c-.4 0-.8.1-1 .4Zm-12 29c-.3.3-.4.7-.4 1.1a1.5 1.5 0 0 0 1.5 1.4 1.5 1.5 0 0 0 1.5-1.4 1.5 1.5 0 0 0-1.5-1.5c-.4 0-.8.1-1 .4Zm-12.3 1a1.5 1.5 0 0 1 1.5-1.3 1.5 1.5 0 0 1 1.5 1.4 1.5 1.5 0 0 1-2 1.5 1.5 1.5 0 0 1-1-1.5Zm-11.7-.7a1.5 1.5 0 0 0 2 2 1.5 1.5 0 1 0-2-2Zm-9.6-.3c-.6-.6-1.5-.6-2.1 0-.6.6-.6 1.6 0 2.2.6.6 1.5.6 2.1 0 .6-.6.6-1.6 0-2.2Zm-14.2.3a1.5 1.5 0 0 0 2 2 1.5 1.5 0 1 0-2-2Zm-12.2.8a1.5 1.5 0 0 1 1-1.4 1.5 1.5 0 0 1 2 1.1 1.5 1.5 0 0 1-.7 1.5 1.5 1.5 0 0 1-2.3-1.2Zm-11.5-1c.6-.7 1.6-.7 2.2 0 .6.5.6 1.5 0 2-.6.7-1.6.7-2.2 0-.6-.5-.6-1.5 0-2Zm-12.3 1a1.5 1.5 0 0 1 1.8-1.5 1.5 1.5 0 0 1 1.2 1.2 1.5 1.5 0 0 1-1.5 1.8 1.5 1.5 0 0 1-1.5-1.5Zm-11.7-.8a1.5 1.5 0 0 0 1.3 2.3 1.5 1.5 0 0 0 1.4-1 1.5 1.5 0 0 0-1.1-2 1.5 1.5 0 0 0-1.6.7Zm-12.2.8a1.5 1.5 0 0 1 1.6-1.5 1.5 1.5 0 0 1 1.2 1.5 1.5 1.5 0 0 1-1.3 1.5 1.5 1.5 0 0 1-1.5-1.5Zm-11.5-1c-.3.2-.4.6-.4 1a1.5 1.5 0 0 0 1.5 1.5 1.5 1.5 0 0 0 1.4-1.5 1.5 1.5 0 0 0-1.4-1.5c-.4 0-.8.1-1 .4ZM106 67.2a1.5 1.5 0 0 1 1.5-1.5 1.5 1.5 0 0 1 1.4 1.5 1.5 1.5 0 0 1-1.4 1.5 1.5 1.5 0 0 1-1.5-1.5Zm131-14.6a1.5 1.5 0 0 1 1-1.4l.6-.2a1.5 1.5 0 0 1 1.5 1 1.5 1.5 0 0 1-.4 1.7 1.5 1.5 0 0 1-1.1.4 1.5 1.5 0 0 1-1.5-1.5Zm-11.7-.6a1.5 1.5 0 0 0 0 1.1 1.5 1.5 0 0 0 1.4 1 1.5 1.5 0 0 0 1.4-1.5 1.5 1.5 0 0 0-1.4-1.6 1.5 1.5 0 0 0-1.4 1Zm-12 .5a1.5 1.5 0 0 1 1.5-1.5 1.5 1.5 0 0 1 1.4 1.5 1.5 1.5 0 0 1-1.4 1.5 1.5 1.5 0 0 1-1.4-.9l-.1-.6Zm-11.5-1c.6-.6 1.5-.6 2.1 0 .6.6.6 1.5 0 2.1-.6.6-1.5.6-2.1 0-.6-.6-.6-1.5 0-2.1Zm-12.4 1a1.5 1.5 0 0 1 1.5-1.5 1.5 1.5 0 0 1 1.5 1.6 1.5 1.5 0 0 1-1.5 1.5 1.5 1.5 0 0 1-1.4-1v-.5Zm-11.8-.5a1.5 1.5 0 0 0 1.4 2 1.5 1.5 0 0 0 1.4-1.4A1.5 1.5 0 0 0 179 51a1.5 1.5 0 0 0-1.4 1Zm-9.4-.5c-.6-.6-1.6-.6-2.2 0-.6.6-.6 1.5 0 2.1.6.6 1.6.6 2.2 0 .6-.6.6-1.5 0-2.1Zm-14.4.5a1.5 1.5 0 0 0 0 1.1 1.5 1.5 0 0 0 .8.8l.6.2a1.5 1.5 0 0 0 1.4-1.5 1.5 1.5 0 0 0-1.4-1.6 1.5 1.5 0 0 0-1.4 1Zm-12 .6a1.5 1.5 0 0 1 .9-1.4l.6-.2a1.5 1.5 0 0 1 1.4 1.6 1.5 1.5 0 0 1-1.4 1.5 1.5 1.5 0 0 1-1.5-1.5ZM130 52a1.5 1.5 0 0 0 0 1.1 1.5 1.5 0 0 0 1.4 1 1.5 1.5 0 0 0 1.4-1.5 1.5 1.5 0 0 0-1.4-1.6 1.5 1.5 0 0 0-1.4 1Zm-12 .6a1.5 1.5 0 0 1 .9-1.4l.5-.2a1.5 1.5 0 0 1 1.5 1.6 1.5 1.5 0 0 1-1.5 1.5 1.5 1.5 0 0 1-1.4-1v-.5ZM237 38a1.5 1.5 0 0 1 1.6-1.4A1.5 1.5 0 0 1 240 38a1.5 1.5 0 0 1-1.5 1.4 1.5 1.5 0 0 1-1.5-1.4Zm-11.4-1c.6-.6 1.6-.6 2.1 0 .6.5.6 1.5 0 2-.5.7-1.5.7-2.1 0-.6-.5-.6-1.5 0-2Zm-12.4 1a1.5 1.5 0 0 1 1-1.4 1.5 1.5 0 0 1 2 .8 1.5 1.5 0 0 1-1.4 2.1 1.5 1.5 0 0 1-1.6-1.5Zm-11.4-1a1.5 1.5 0 0 0 1 2.5 1.5 1.5 0 0 0 1.6-1.5 1.5 1.5 0 0 0-1.6-1.5c-.4 0-.7.2-1 .4Zm-9.8 0c-.6-.6-1.5-.6-2.1 0-.6.5-.6 1.5 0 2 .6.7 1.5.7 2.1 0 .6-.5.6-1.5 0-2Zm-14 0c.5-.6 1.5-.6 2 0 .7.5.7 1.5 0 2-.5.7-1.5.7-2 0-.6-.5-.6-1.5 0-2Zm-12.4 1a1.5 1.5 0 0 1 1.5-1.5 1.5 1.5 0 0 1 1.5 1.5 1.5 1.5 0 0 1-1.5 1.5 1.5 1.5 0 0 1-1.5-1.5Zm-11.5-1a1.5 1.5 0 0 0 1 2.5 1.5 1.5 0 0 0 1.6-1.5 1.5 1.5 0 0 0-1.5-1.5c-.4 0-.8.2-1 .4Zm-9.8 0c-.5-.6-1.5-.6-2.1 0-.6.5-.6 1.5 0 2 .6.7 1.6.7 2.1 0 .6-.5.6-1.5 0-2Zm-14.3.4a1.5 1.5 0 0 0 .3 1.7 1.5 1.5 0 0 0 2.6-1 1.5 1.5 0 0 0-1.5-1.6 1.5 1.5 0 0 0-1.4 1Z" clip-rule="evenodd" opacity=".9"/><path fill="url(#c)" fill-rule="evenodd" d="M284.5-5.4a1.5 1.5 0 0 1 2-1.5 1.5 1.5 0 0 1 1 1.5A1.5 1.5 0 0 1 286-4a1.5 1.5 0 0 1-1.5-1.4Zm12.3-1c.6-.6 1.6-.6 2.2 0 .6.5.6 1.5 0 2-.6.7-1.6.7-2.2 0-.6-.5-.6-1.5 0-2Zm11.5 1a1.5 1.5 0 0 1 1.5-1.4 1.5 1.5 0 0 1 1.5 1.4 1.5 1.5 0 0 1-1.5 1.4 1.5 1.5 0 0 1-1.5-1.4Zm12.4-1c-.3.3-.5.6-.5 1a1.5 1.5 0 0 0 1.5 1.4 1.5 1.5 0 0 0 1.5-1.4 1.5 1.5 0 0 0-1.5-1.4c-.4 0-.7.1-1 .4Zm-12.3 15a1.5 1.5 0 0 0 0 1.1 1.5 1.5 0 0 0 1.4 1 1.5 1.5 0 0 0 1.5-1 1.5 1.5 0 0 0-1.5-2 1.5 1.5 0 0 0-1.4.9Zm11.8.6a1.5 1.5 0 0 1 1.5-1.6 1.5 1.5 0 0 1 1.4 1.6 1.5 1.5 0 0 1-1.4 1.5 1.5 1.5 0 0 1-1.5-1.5ZM248.8 23a1.5 1.5 0 0 0 1.4 2 1.5 1.5 0 0 0 1.6-1.4 1.5 1.5 0 0 0-.5-1.1 1.5 1.5 0 0 0-2.5.5Zm59.5.6a1.5 1.5 0 0 1 .4-1.1 1.5 1.5 0 0 1 2.6 1.1 1.5 1.5 0 0 1-1.5 1.4 1.5 1.5 0 0 1-1.5-1.4Zm12 0a1.5 1.5 0 0 1 1.4-1.4 1.5 1.5 0 0 1 1.5 1.4 1.5 1.5 0 0 1-1.5 1.4 1.5 1.5 0 0 1-1.5-1.4Zm-23.4-1c-.3.3-.5.6-.5 1a1.5 1.5 0 0 0 1.5 1.4 1.5 1.5 0 0 0 1.5-1.4 1.5 1.5 0 0 0-1.5-1.4c-.4 0-.8.1-1 .4Zm-12.4 1a1.5 1.5 0 0 1 1.5-1.4 1.5 1.5 0 0 1 1.5 1.4 1.5 1.5 0 0 1-1.5 1.4 1.5 1.5 0 0 1-1.5-1.4Zm-11.9-.6a1.5 1.5 0 0 0 1.4 2 1.5 1.5 0 0 0 1.6-1.4 1.5 1.5 0 0 0-2.2-1.5 1.5 1.5 0 0 0-.8 1Zm-12 .6a1.5 1.5 0 0 1 1.6-1.4 1.5 1.5 0 0 1 1.5 1.4 1.5 1.5 0 0 1-.4 1.1 1.5 1.5 0 0 1-2.7-1.1Zm35.8-14.5a1.5 1.5 0 0 1 1-1.4l.5-.2a1.5 1.5 0 0 1 1.4 1.6 1.5 1.5 0 0 1-1.4 1.5 1.5 1.5 0 0 1-1.4-1l-.1-.5Zm-11.8-.6a1.5 1.5 0 0 0 0 1.1 1.5 1.5 0 0 0 1.4 1 1.5 1.5 0 0 0 1.4-1.5 1.5 1.5 0 0 0-1.4-1.6 1.5 1.5 0 0 0-1.4 1Zm-12 .6a1.5 1.5 0 0 1 1.5-1.6 1.5 1.5 0 0 1 1.4 1.6 1.5 1.5 0 0 1-1.4 1.5 1.5 1.5 0 0 1-1.4-1l-.1-.5Zm-11.9-.6a1.5 1.5 0 0 0 0 1.2 1.5 1.5 0 0 0 1.4.9 1.5 1.5 0 0 0 1.5-1.5 1.5 1.5 0 0 0-1.5-1.5 1.5 1.5 0 0 0-1.4.9Zm-12 .6a1.5 1.5 0 0 1 1.5-1.6 1.5 1.5 0 0 1 1.5 1.6 1.5 1.5 0 0 1-1.5 1.5 1.5 1.5 0 0 1-1.5-1.5ZM273-6.4c-.3.3-.4.6-.4 1A1.5 1.5 0 0 0 274-4a1.5 1.5 0 0 0 1.5-1.4 1.5 1.5 0 0 0-1.5-1.4c-.4 0-.8.1-1 .4Zm-9.8 0c-.6-.6-1.5-.6-2.1 0-.6.5-.6 1.5 0 2 .6.7 1.5.7 2.1 0 .6-.5.6-1.5 0-2Zm-14 0c-.3.3-.5.6-.5 1a1.5 1.5 0 0 0 1.5 1.4 1.5 1.5 0 0 0 1.5-1.4 1.5 1.5 0 0 0-1.5-1.4c-.4 0-.7.1-1 .4Zm-12 29c-.2.3-.4.7-.4 1.1a1.5 1.5 0 0 0 1.6 1.4 1.5 1.5 0 0 0 1.5-1.4 1.5 1.5 0 0 0-1.6-1.5c-.4 0-.8.1-1 .4Zm-12.3 1a1.5 1.5 0 0 1 1.5-1.3 1.5 1.5 0 0 1 1.6 1.4 1.5 1.5 0 0 1-2.2 1.5 1.5 1.5 0 0 1-.9-1.5Zm-11.7-.7a1.5 1.5 0 0 0 2.1 2 1.5 1.5 0 1 0-2-2Zm-9.6-.3c-.5-.6-1.5-.6-2.1 0-.6.6-.6 1.6 0 2.2.6.6 1.6.6 2.1 0 .6-.6.6-1.6 0-2.2Zm-14.2.3a1.5 1.5 0 0 0 1.3 2.3 1.5 1.5 0 0 0 1.4-1.8 1.5 1.5 0 0 0-1.1-1.2 1.5 1.5 0 0 0-1.6.7Zm-12.2.8a1.5 1.5 0 0 1 1-1.4 1.5 1.5 0 0 1 2 1.1 1.5 1.5 0 0 1-.6 1.6 1.5 1.5 0 0 1-2.4-1.3Zm-11.4-1c.5-.7 1.5-.7 2.1 0 .6.5.6 1.5 0 2-.6.7-1.6.7-2.1 0-.6-.5-.6-1.5 0-2Zm-12.4 1a1.5 1.5 0 0 1 1.8-1.5 1.5 1.5 0 0 1 1.2 1.2 1.5 1.5 0 0 1-1.5 1.8 1.5 1.5 0 0 1-1.5-1.5Zm-11.7-.8a1.5 1.5 0 0 0 .2 1.9 1.5 1.5 0 0 0 2.5-.5 1.5 1.5 0 0 0-1.1-2 1.5 1.5 0 0 0-1.6.6ZM237 8.6a1.5 1.5 0 0 0 0 1.1 1.5 1.5 0 0 0 1.4 1 1.5 1.5 0 0 0 1.6-1.5 1.5 1.5 0 0 0-.4-1.1 1.5 1.5 0 0 0-1.2-.5 1.5 1.5 0 0 0-1.4 1Zm-12 .6a1.5 1.5 0 0 1 1-1.4l.5-.2a1.5 1.5 0 0 1 1.4 1.6 1.5 1.5 0 0 1-1.4 1.5 1.5 1.5 0 0 1-1.5-1.5ZM213 8.5a1.5 1.5 0 0 0 1.4 2.1 1.5 1.5 0 0 0 1.4-1.5 1.5 1.5 0 0 0-1.4-1.5 1.5 1.5 0 0 0-1.4 1Zm-9.4-.4c-.6-.6-1.6-.6-2.2 0-.6.6-.6 1.5 0 2.1.6.6 1.6.6 2.2 0 .5-.6.5-1.5 0-2.1Zm-14.4.5a1.5 1.5 0 0 0 1.4 2 1.5 1.5 0 0 0 1.4-1.4 1.5 1.5 0 0 0-1.4-1.6 1.5 1.5 0 0 0-1.4 1Zm-12 .6a1.5 1.5 0 0 1 1.4-1.6 1.5 1.5 0 0 1 1.5 1.6 1.5 1.5 0 0 1-1.4 1.5 1.5 1.5 0 0 1-1.6-1.5ZM165.7 8c.5-.6 1.5-.6 2.1 0 .6.6.6 1.5 0 2.1-.6.6-1.6.6-2.1 0-.6-.6-.6-1.5 0-2.1Zm-12.4 1a1.5 1.5 0 0 1 1-1.3l.5-.2a1.5 1.5 0 0 1 1.4 1.6 1.5 1.5 0 0 1-1.4 1.5 1.5 1.5 0 0 1-1.4-1v-.5Zm-11.8-.5a1.5 1.5 0 0 0 0 1.1 1.5 1.5 0 0 0 1.4 1 1.5 1.5 0 0 0 1.4-1.5 1.5 1.5 0 0 0-1.4-1.6 1.5 1.5 0 0 0-1.4 1Zm-12 .6a1.5 1.5 0 0 1 1-1.4l.5-.2a1.5 1.5 0 0 1 1.4 1.6 1.5 1.5 0 0 1-1.4 1.5 1.5 1.5 0 0 1-1.5-1.5Zm-11.8-.6a1.5 1.5 0 0 0 0 1.1 1.5 1.5 0 0 0 .8.8l.6.2a1.5 1.5 0 0 0 1.4-1.5 1.5 1.5 0 0 0-1.4-1.6 1.5 1.5 0 0 0-1.4 1Zm119.5-15c-.3.3-.5.6-.5 1a1.5 1.5 0 0 0 1.5 1.4 1.5 1.5 0 0 0 1.5-1.4 1.5 1.5 0 0 0-1.5-1.4c-.4 0-.7.1-1 .4Zm-9.8 0c-.6-.6-1.6-.6-2.2 0-.6.5-.6 1.5 0 2 .6.7 1.6.7 2.2 0 .6-.5.6-1.5 0-2ZM213-6a1.5 1.5 0 0 0 .3 1.7 1.5 1.5 0 0 0 2.6-1 1.5 1.5 0 0 0-1.5-1.6 1.5 1.5 0 0 0-1.4 1Zm-12 .6a1.5 1.5 0 0 1 1.5-1.5 1.5 1.5 0 0 1 1.5 1.5 1.5 1.5 0 0 1-1.5 1.5 1.5 1.5 0 0 1-1.5-1.5Zm-11.5-1c.6-.6 1.5-.6 2.1 0 .6.5.6 1.5 0 2-.6.7-1.5.7-2.1 0-.6-.5-.6-1.5 0-2Zm-9.8 0c-.6-.6-1.5-.6-2.1 0-.6.5-.6 1.5 0 2 .6.7 1.5.7 2.1 0 .6-.5.6-1.5 0-2Zm-14.4.4a1.5 1.5 0 0 0 .4 1.7 1.5 1.5 0 0 0 2.5-1 1.5 1.5 0 0 0-1.5-1.6 1.5 1.5 0 0 0-1.4 1Zm-12 .6a1.5 1.5 0 0 1 1.5-1.5 1.5 1.5 0 0 1 1.5 1.5 1.5 1.5 0 0 1-1.5 1.5 1.5 1.5 0 0 1-1.5-1.5Zm-11.5-1c.6-.6 1.6-.6 2.2 0 .6.5.6 1.5 0 2-.6.7-1.6.7-2.2 0-.6-.5-.6-1.5 0-2Zm-12.3 1a1.5 1.5 0 0 1 1.5-1.5 1.5 1.5 0 0 1 1.4 1 1.5 1.5 0 0 1-.3 1.6 1.5 1.5 0 0 1-2.6-1Zm-11.5-1c-.3.2-.4.6-.4 1a1.5 1.5 0 0 0 1.5 1.5 1.5 1.5 0 0 0 1.4-1.5 1.5 1.5 0 0 0-1.4-1.5c-.4 0-.8.2-1.1.5ZM284.7 38a1.5 1.5 0 0 1 2.2-1.5 1.5 1.5 0 0 1 .9 1.5 1.5 1.5 0 0 1-1.6 1.4 1.5 1.5 0 0 1-1.5-1.4Zm12.4-1c.6-.6 1.5-.6 2.1 0 .6.5.6 1.5 0 2-.6.7-1.5.7-2.1 0-.6-.5-.6-1.5 0-2Zm11.5 1a1.5 1.5 0 0 1 1.5-1.4 1.5 1.5 0 0 1 1.5 1.4 1.5 1.5 0 0 1-1.5 1.4 1.5 1.5 0 0 1-1.5-1.4Zm12.4-1c-.3.3-.5.6-.5 1a1.5 1.5 0 0 0 1.5 1.4 1.5 1.5 0 0 0 1.5-1.4 1.5 1.5 0 0 0-1.5-1.4c-.4 0-.8.1-1 .4Zm-12.3 15a1.5 1.5 0 0 0 0 1.1 1.5 1.5 0 0 0 1.4 1 1.5 1.5 0 0 0 1.5-1 1.5 1.5 0 0 0-1.5-2 1.5 1.5 0 0 0-1.4.9Zm11.8.6A1.5 1.5 0 0 1 322 51a1.5 1.5 0 0 1 1.4 1.6 1.5 1.5 0 0 1-1.4 1.5 1.5 1.5 0 0 1-1.5-1.5ZM249 66.6a1.5 1.5 0 0 0 1.4 2 1.5 1.5 0 0 0 1.5-1.4 1.5 1.5 0 0 0-.4-1.1 1.5 1.5 0 0 0-2.5.5Zm59.5.6a1.5 1.5 0 0 1 .4-1.1 1.5 1.5 0 0 1 2.6 1.1 1.5 1.5 0 0 1-1.5 1.4 1.5 1.5 0 0 1-1.5-1.4Zm11.9 0a1.5 1.5 0 0 1 1.5-1.4 1.5 1.5 0 0 1 1.5 1.4 1.5 1.5 0 0 1-1.5 1.4 1.5 1.5 0 0 1-1.5-1.4Zm-23.4-1c-.3.3-.4.6-.5 1a1.5 1.5 0 0 0 1.6 1.4 1.5 1.5 0 0 0 1.5-1.4 1.5 1.5 0 0 0-1.5-1.4c-.4 0-.8.1-1 .4Zm-12.4 1a1.5 1.5 0 0 1 1.5-1.4 1.5 1.5 0 0 1 1.6 1.4 1.5 1.5 0 0 1-1.6 1.4 1.5 1.5 0 0 1-1.5-1.4Zm-11.8-.6a1.5 1.5 0 0 0 .4 1.6 1.5 1.5 0 0 0 2.4-1.6 1.5 1.5 0 0 0-2.8 0Zm-12 .6a1.5 1.5 0 0 1 1.5-1.4 1.5 1.5 0 0 1 1.5 1.4 1.5 1.5 0 0 1-1.5 1.6 1.5 1.5 0 0 1-1.5-1.6Zm35.7-14.5a1.5 1.5 0 0 1 1-1.4l.6-.2a1.5 1.5 0 0 1 1.4 1.6 1.5 1.5 0 0 1-1.4 1.5 1.5 1.5 0 0 1-1.4-1l-.2-.5Zm-11.8-.6a1.5 1.5 0 0 0 0 1.1 1.5 1.5 0 0 0 1.4 1 1.5 1.5 0 0 0 1.5-1.5 1.5 1.5 0 0 0-1.5-1.6 1.5 1.5 0 0 0-1.4 1Zm-12 .6a1.5 1.5 0 0 1 1.5-1.6 1.5 1.5 0 0 1 1.5 1.6 1.5 1.5 0 0 1-1.5 1.5 1.5 1.5 0 0 1-1.5-1.5ZM261 52a1.5 1.5 0 0 0 0 1.2 1.5 1.5 0 0 0 1.4.9 1.5 1.5 0 0 0 1.4-1.5 1.5 1.5 0 0 0-1.4-1.5 1.5 1.5 0 0 0-1.4.9Zm-12 .6a1.5 1.5 0 0 1 1.5-1.6 1.5 1.5 0 0 1 1.4 1.6 1.5 1.5 0 0 1-1.4 1.5 1.5 1.5 0 0 1-1.5-1.5ZM273.3 37c-.3.3-.5.6-.5 1a1.5 1.5 0 0 0 1.5 1.4 1.5 1.5 0 0 0 1.5-1.4 1.5 1.5 0 0 0-1.5-1.4c-.4 0-.7.1-1 .4Zm-9.8 0c-.6-.6-1.6-.6-2.2 0-.5.5-.5 1.5 0 2 .6.7 1.6.7 2.2 0 .6-.5.6-1.5 0-2Zm-14 0c-.3.3-.5.6-.5 1a1.5 1.5 0 0 0 1.5 1.4 1.5 1.5 0 0 0 1.5-1.4 1.5 1.5 0 0 0-1.5-1.4c-.4 0-.8.1-1 .4Zm-12 29c-.3.3-.4.7-.4 1.1a1.5 1.5 0 0 0 1.5 1.4 1.5 1.5 0 0 0 1.5-1.4 1.5 1.5 0 0 0-1.5-1.5c-.4 0-.8.1-1 .4Zm-12.3 1a1.5 1.5 0 0 1 1.5-1.3 1.5 1.5 0 0 1 1.5 1.4 1.5 1.5 0 0 1-2 1.5 1.5 1.5 0 0 1-1-1.5Zm-11.7-.7a1.5 1.5 0 0 0 2 2 1.5 1.5 0 1 0-2-2Zm-9.6-.3c-.6-.6-1.5-.6-2.1 0-.6.6-.6 1.6 0 2.2.6.6 1.5.6 2.1 0 .6-.6.6-1.6 0-2.2Zm-14.2.3a1.5 1.5 0 0 0 2 2 1.5 1.5 0 1 0-2-2Zm-12.2.8a1.5 1.5 0 0 1 1-1.4 1.5 1.5 0 0 1 2 1.1 1.5 1.5 0 0 1-.7 1.5 1.5 1.5 0 0 1-2.3-1.2Zm-11.5-1c.6-.7 1.6-.7 2.2 0 .6.5.6 1.5 0 2-.6.7-1.6.7-2.2 0-.6-.5-.6-1.5 0-2Zm-12.3 1a1.5 1.5 0 0 1 1.8-1.5 1.5 1.5 0 0 1 1.2 1.2 1.5 1.5 0 0 1-1.5 1.8 1.5 1.5 0 0 1-1.5-1.5Zm-11.7-.8a1.5 1.5 0 0 0 1.3 2.3 1.5 1.5 0 0 0 1.4-1 1.5 1.5 0 0 0-1.1-2 1.5 1.5 0 0 0-1.6.7Zm-12.2.8a1.5 1.5 0 0 1 1.6-1.5 1.5 1.5 0 0 1 1.2 1.5 1.5 1.5 0 0 1-1.3 1.5 1.5 1.5 0 0 1-1.5-1.5Zm-11.5-1c-.3.2-.4.6-.4 1a1.5 1.5 0 0 0 1.5 1.5 1.5 1.5 0 0 0 1.4-1.5 1.5 1.5 0 0 0-1.4-1.5c-.4 0-.8.1-1 .4ZM106 67.2a1.5 1.5 0 0 1 1.5-1.5 1.5 1.5 0 0 1 1.4 1.5 1.5 1.5 0 0 1-1.4 1.5 1.5 1.5 0 0 1-1.5-1.5Zm131-14.6a1.5 1.5 0 0 1 1-1.4l.6-.2a1.5 1.5 0 0 1 1.5 1 1.5 1.5 0 0 1-.4 1.7 1.5 1.5 0 0 1-1.1.4 1.5 1.5 0 0 1-1.5-1.5Zm-11.7-.6a1.5 1.5 0 0 0 0 1.1 1.5 1.5 0 0 0 1.4 1 1.5 1.5 0 0 0 1.4-1.5 1.5 1.5 0 0 0-1.4-1.6 1.5 1.5 0 0 0-1.4 1Zm-12 .5a1.5 1.5 0 0 1 1.5-1.5 1.5 1.5 0 0 1 1.4 1.5 1.5 1.5 0 0 1-1.4 1.5 1.5 1.5 0 0 1-1.4-.9l-.1-.6Zm-11.5-1c.6-.6 1.5-.6 2.1 0 .6.6.6 1.5 0 2.1-.6.6-1.5.6-2.1 0-.6-.6-.6-1.5 0-2.1Zm-12.4 1a1.5 1.5 0 0 1 1.5-1.5 1.5 1.5 0 0 1 1.5 1.6 1.5 1.5 0 0 1-1.5 1.5 1.5 1.5 0 0 1-1.4-1v-.5Zm-11.8-.5a1.5 1.5 0 0 0 1.4 2 1.5 1.5 0 0 0 1.4-1.4A1.5 1.5 0 0 0 179 51a1.5 1.5 0 0 0-1.4 1Zm-9.4-.5c-.6-.6-1.6-.6-2.2 0-.6.6-.6 1.5 0 2.1.6.6 1.6.6 2.2 0 .6-.6.6-1.5 0-2.1Zm-14.4.5a1.5 1.5 0 0 0 0 1.1 1.5 1.5 0 0 0 .8.8l.6.2a1.5 1.5 0 0 0 1.4-1.5 1.5 1.5 0 0 0-1.4-1.6 1.5 1.5 0 0 0-1.4 1Zm-12 .6a1.5 1.5 0 0 1 .9-1.4l.6-.2a1.5 1.5 0 0 1 1.4 1.6 1.5 1.5 0 0 1-1.4 1.5 1.5 1.5 0 0 1-1.5-1.5ZM130 52a1.5 1.5 0 0 0 0 1.1 1.5 1.5 0 0 0 1.4 1 1.5 1.5 0 0 0 1.4-1.5 1.5 1.5 0 0 0-1.4-1.6 1.5 1.5 0 0 0-1.4 1Zm-12 .6a1.5 1.5 0 0 1 .9-1.4l.5-.2a1.5 1.5 0 0 1 1.5 1.6 1.5 1.5 0 0 1-1.5 1.5 1.5 1.5 0 0 1-1.4-1v-.5ZM237 38a1.5 1.5 0 0 1 1.6-1.4A1.5 1.5 0 0 1 240 38a1.5 1.5 0 0 1-1.5 1.4 1.5 1.5 0 0 1-1.5-1.4Zm-11.4-1c.6-.6 1.6-.6 2.1 0 .6.5.6 1.5 0 2-.5.7-1.5.7-2.1 0-.6-.5-.6-1.5 0-2Zm-12.4 1a1.5 1.5 0 0 1 1-1.4 1.5 1.5 0 0 1 2 .8 1.5 1.5 0 0 1-1.4 2.1 1.5 1.5 0 0 1-1.6-1.5Zm-11.4-1a1.5 1.5 0 0 0 1 2.5 1.5 1.5 0 0 0 1.6-1.5 1.5 1.5 0 0 0-1.6-1.5c-.4 0-.7.2-1 .4Zm-9.8 0c-.6-.6-1.5-.6-2.1 0-.6.5-.6 1.5 0 2 .6.7 1.5.7 2.1 0 .6-.5.6-1.5 0-2Zm-14 0c.5-.6 1.5-.6 2 0 .7.5.7 1.5 0 2-.5.7-1.5.7-2 0-.6-.5-.6-1.5 0-2Zm-12.4 1a1.5 1.5 0 0 1 1.5-1.5 1.5 1.5 0 0 1 1.5 1.5 1.5 1.5 0 0 1-1.5 1.5 1.5 1.5 0 0 1-1.5-1.5Zm-11.5-1a1.5 1.5 0 0 0 1 2.5 1.5 1.5 0 0 0 1.6-1.5 1.5 1.5 0 0 0-1.5-1.5c-.4 0-.8.2-1 .4Zm-9.8 0c-.5-.6-1.5-.6-2.1 0-.6.5-.6 1.5 0 2 .6.7 1.6.7 2.1 0 .6-.5.6-1.5 0-2Zm-14.3.4a1.5 1.5 0 0 0 .3 1.7 1.5 1.5 0 0 0 2.6-1 1.5 1.5 0 0 0-1.5-1.6 1.5 1.5 0 0 0-1.4 1Z" clip-rule="evenodd" opacity=".9" style="mix-blend-mode:screen"/><g opacity=".9" style="mix-blend-mode:screen"><path fill="url(#d)" d="M376.3 58.7c-14.2-8.7-38.8-12.1-63.1-9.2-27.3 3.1-67.6 24.7-82.1 37.3-19 16.5 3 30.5 30.2 25.7 26.2-4.6 25.5-13.2 55.2-3.5 10.5 3.4 23 8.4 36.1 6.2a47.9 47.9 0 0 0 33.7-20.7c10.1-15 3.7-27.3-10-35.8Z" style="mix-blend-mode:screen"/><path fill="url(#e)" d="M371 60.4a95.1 95.1 0 0 0-57.8-11c-25.2 3-65.1 26.4-78.5 38.1-17.7 15.4 5.2 25.7 26.5 22.2 24.3-3.9 33.3-11.7 60.8-2.7 9.7 3.1 16 5.7 27 4.4 15.4-1.8 25-8.4 31.2-17.7 9.4-14 3.5-25.5-9.2-33.3Z"/></g><use xlink:href="#reuse-0"/><use xlink:href="#reuse-1"/><use xlink:href="#reuse-2"/><use xlink:href="#reuse-3"/><use xlink:href="#reuse-4"/><path fill="url(#f)" d="M295 32c2 1.1 2 3 0 4.1a8 8 0 0 1-7.2 0c-2-1.1-2-3 0-4.1a8 8 0 0 1 7.1 0Z"/><path fill="url(#g)" d="M337.8 24c-.5 1.9-4 3.3-8.8 2-4.3-1-10.4-4.9-14-7.2-1.4-1-2.7-1.8-3.8-3.3-1.6-2.3.5-4 3.1-4.5 3.6-.7 7.2.9 12.7 3.8 3 1.5 11.5 6 10.8 9.2Z"/><g style="mix-blend-mode:multiply"><path fill="url(#h)" d="m329.7 20 1-1.7.4-1.2-4-2.3V21l-.1 1.9-.6 1.7-.1.6a21.7 21.7 0 0 0 4.5 1.3c-.5-1-1.1-2-1.5-3.2-.2-.5-.3-1.1-.2-1.7l.6-1.5Z"/><path fill="url(#i)" d="M336.2 20.8c0 .8.2 1.5.3 2.3l.4 2.1c.5-.3.8-.8.9-1.2.2-1-.5-2-1.6-3.2Z"/><path fill="url(#j)" d="m321.8 16 .3-3.6a24 24 0 0 0-2.7-1c.3 1 .4 2 .3 2.9 0 .7-.1 1.3-.3 2l-1 1.8a7.5 7.5 0 0 0-.8 2.3l3 1.8c0-.6 0-1.2.2-1.8.3-1.5.8-3 1-4.5Z"/><path fill="url(#k)" d="M311.2 15.5c.4.5.7 1 1.1 1.3v-3.6l-.1-1.4c-1.4.8-2.1 2-1 3.7Z"/></g><path fill="url(#l)" d="M303.2 23.2c3.9 3.1 8.3 5.6 13 7.6a30.8 30.8 0 0 0 16.2 2.7c3.8-.5 6.7-1.6 10.2-3.5 4-2.3 7.3-4.6 7.4-8.5v42c0 2.2-.9 3.5-2.5 5.1a31.2 31.2 0 0 1-13.8 6.7c-6 1-10.8 0-16.7-2.2-5-2-10.2-4.8-14.4-8.4-3.6-3.3-4-5-4.1-6.8V15.7c0 2.2 1 4.3 4.7 7.5Z"/><g style="mix-blend-mode:multiply"><path fill="url(#m)" d="m339.5 72.9.7-2.5a34.5 34.5 0 0 0 .8-9.8l-.3-2.4c0-.9 0-1.6.3-2.4l.8-2.2c.2-.9.3-1.7.3-2.6 0-1.7-.2-3.4-.4-5.2 0-1.7-.2-3.4-.4-5.2-.2-1.6-.7-3.2-1-4.8-.3-1.5-.4-3-.3-4.5-1 .5-2 .9-3.2 1.2v3.7c.2.7.5 1.4 1 2l.9 2c.3.7.4 1.5.4 2.2 0 1.5-.2 3-.7 4.5-.5 1.5-1.2 3-1.4 4.5a6 6 0 0 0 0 2.3l.7 2c.4.6.7 1.3.9 2.1.2.8.1 1.6 0 2.4-.3 1.6-.9 3-1.4 4.6a24.6 24.6 0 0 0-.8 9.8l3-1 .1-.7Z"/><path fill="url(#n)" d="m350 37-.6-1.5c-.1-.7 0-1.3.2-2l.4-.9v-11c0 1.4-.6 2.7-1.4 3.8 0 .6-.2 1.1-.4 1.6l-1.4 2.4c-.5.9-.7 1.8-.4 2.8l.7 1.9c.2.7.2 1.4.1 2v5L347 46v4.9c0 1.5.2 3 .5 4.4.3 1.4.5 2.8.4 4.3 0 .7-.3 1.5-.4 2.2L347 64a9.3 9.3 0 0 0 .4 4.5c1.6-1.6 2.4-2.9 2.5-5V36.8Z"/><path fill="url(#o)" d="M331 53.1a16 16 0 0 1-1.3-4.4l-.7-4.6-.7-4.9-.4-4.8-.2-.7-2-.2v1l-.1 5c0 3.1 1.3 6 1.8 9 .4 3.2-.1 6.4-.2 9.6-.1 1.6 0 3.2.2 4.8l.5 2.4a25.3 25.3 0 0 1 .3 7.5c0 1-.3 2-.4 2.9l4.1-.1c.4-3 0-6 .2-8.8 0-1.7.3-3.4.4-5a50.7 50.7 0 0 0 0-5c-.2-1.3-.9-2.5-1.5-3.7Z"/><path fill="url(#p)" d="M301.3 32.1c-.2-1.6-.7-3.2-1-4.8a16.8 16.8 0 0 1 0-7.2c-1.3-1.6-1.8-2.7-1.8-4.2v15.5a6.4 6.4 0 0 1 .6 2.5c0 1.4-.2 2.8-.6 4V49.4c.2.8.2 1.6 0 2.4v6.2c0 1.2.2 2.4 1.6 4.2v-.2a34.5 34.5 0 0 0 .8-9.8l-.2-2.4c-.1-.8 0-1.6.3-2.4.2-.7.6-1.5.7-2.2.2-.8.3-1.7.3-2.5 0-1.8-.2-3.5-.3-5.2l-.4-5.2Z"/><path fill="url(#q)" d="M310.7 70.1v-.9c0-.7-.2-1.3-.3-2a18.3 18.3 0 0 1-.2-7.2c.4-1.7.9-3.3 1-5 .3-1.6.4-3.4.5-5.1l.3-5.2c0-.9 0-1.7-.3-2.6-.1-.7-.5-1.4-.7-2.1-.3-.8-.4-1.6-.3-2.5l.3-2.4a34.5 34.5 0 0 0-.3-7c-1.6-.8-3-1.7-4.5-2.7a17.8 17.8 0 0 0 1 5.5l1.4 4.6V38c-.2.8-.6 1.5-.9 2.2a10 10 0 0 0-.7 2 6 6 0 0 0 0 2.2c.2 1.6.9 3 1.4 4.5.5 1.4.7 3 .7 4.5 0 .7-.2 1.5-.4 2.2l-1 2c-.4.6-.7 1.3-.9 2-.2.8-.2 1.7-.1 2.5l.3 2.4a28.2 28.2 0 0 1 .2 3.6c1.1.8 2.3 1.5 3.5 2.1Z"/><path fill="url(#r)" d="m317.4 73.3 3.8 1.2c.5-1.1.7-2.4.8-3.7 0-1.4-.2-2.7-.7-4-.6-1.3-1.3-2.4-1.7-3.7-.3-.6-.4-1.2-.2-1.9 0-.6.3-1 .6-1.6a9.8 9.8 0 0 0 1.6-3.9c.3-1.5.3-3 .4-4.5l-.3-4.8a166 166 0 0 0-1-9.6l-.3-2.7-.1-1.8-3.4-1.2.1 1.5.4 2.3c.2.8.4 1.5.4 2.2.1 1.5 0 3-.3 4.3-.3 1.5-.6 3-.6 4.4l.1 5 .1 4.8.1 5c0 .6 0 1.3-.2 2l-.6 2c-.3.9-.1 1.8.3 2.7l1.4 2.4c.4.7.6 1.6.2 2.4l-.9 1.2Z"/></g><use xlink:href="#reuse-5"/><path fill="#91BDFF" d="M292.4 15v-.2l.1-.2 11.6-2.4h.1l.2.2-12 2.6ZM292.2 14l.2-.1 10.8-2.3h.3c.2.2.1.3-.1.4l-10.8 2.2c-.2 0-.4 0-.4-.2ZM298 10.5h.1c.4 0 .5.3.2.3l-3 .7c-.3 0-.6-.2-.3-.3l3-.7ZM300.9 11l-7.4 1.6c-.3 0-.5-.1-.4-.3h.2l7.4-1.6h.2c.2 0 .3.3 0 .3ZM292.4 13.5v-.3l.3-.1 9.4-2h.3l.4.2-10.3 2.2h-.1ZM304.7 13.2 293 15.6l-.4-.1s0-.2.2-.2l11.7-2.5.3.1c.1.1 0 .2-.1.3ZM299.4 18c-.4 0-.5-.3-.2-.4l3-.6c.3-.1.6.2.3.3h-.1l-3 .6ZM304.2 16.2l-7.4 1.5a.5.5 0 0 1-.2 0c-.3 0-.3-.2 0-.3L304 16c.2 0 .5 0 .3.2l-.1.1ZM295 17.3c-.1 0-.1-.3.1-.3l9.5-2c.2 0 .5 0 .4.2l-.2.1-9.5 2h-.2ZM293.2 16.2c-.1-.1 0-.3.1-.3l11.5-2.4.4.1c0 .1 0 .2-.2.2l-11.5 2.4h-.3ZM294 16.8c-.2-.1-.1-.3 0-.3l10.8-2.3c.2 0 .4 0 .4.2l-.2.1-10.7 2.3h-.3Z"/><use xlink:href="#reuse-6"/><use xlink:href="#reuse-7" style="mix-blend-mode:multiply"/><use xlink:href="#reuse-8"/><path fill="url(#s)" d="M277.8 53.8c-3.2-1.1-6.8-1.7-7.1-5.1v42c.4 4.6 10.5 10.4 22.8 6.6 5-1.7 15.8-7 16-12.3V43c-.2 5.2-16.9 15.5-31.7 10.8Z"/><path fill="url(#t)" d="M295.2 42.1a13 13 0 0 0-11.3-1c-3.5 1.6-4 4.4.2 7 3.7 2 8.1 2 11.2.6 3.2-1.8 3-4.5-.1-6.6Z"/><path fill="url(#u)" d="M255.7 39v-.1V81c.4 4.3 7.2 7.5 15 6.4V47.9c.2-.9 1.7-2.8 1.7-2.9h-.4c-5 .4-15.7-.6-16.3-6Z"/><g style="mix-blend-mode:multiply"><path fill="url(#v)" d="M255.7 52c.7 0 1.4.1 2 .4.6.2 1 .5 1.4.8l.6.7.6.6a12.9 12.9 0 0 0 4 3l1.5.6c.5.1 1 .2 1.5 0 .5 0 1-.4 1.3-.8l.7-1.1.6-1c.2-.3.5-.5.8-.6v-3.1c-2.8 1.7-11 1.1-15-3V52Z"/><path fill="url(#w)" d="M260.4 68.5c.4.6.9 1.2 1.6 1.4.4.2 1 .2 1.4.2.7 0 1.3-.2 2-.3.6-.1 1.3-.2 2-.1l2 .2 1.3.1v-5.4c-4.9 1.5-12.3-.4-15-4.5v6.6c.9.1 1.8 0 2.6.2.9.2 1.5.9 2 1.6Z"/></g><path fill="url(#x)" d="M280.8 34a11 11 0 0 0-8.7-2.5c-5.2.7-9 4.3-4.4 7.4 3 1.8 6.3 2 9.3 1.2 3.4-1 6.2-3.4 3.8-6Z"/><path fill="url(#y)" fill-rule="evenodd" d="M266 37v.3c-.6-1.2-.2-2.3.8-3.3l.7-.2c1-.3 2-.4 3-.4s2 .2 3 .4c1.6.2 3.3.5 5 1 1.2.6 2.6 1.2 3.7 2.1.1.8 0 1.6-.5 2.3a5 5 0 0 1-.6-1 5 5 0 0 0-1.5-1.7c-.2-.2-.5-.2-.8-.2-.2 0-.5.1-.7.3l-.4.3a1 1 0 0 1-.7 0l-.8-.6-.6-.4a1 1 0 0 0-.5-.1h-.4c-.4.2-.7.4-1.1.4-.5 0-1 0-1.4-.2h-.3l-.8-.2-.5.1-.3.1h-1.7a6 6 0 0 0-1.2-.2c-.3 0-.6 0-.8.2-.3.3-.5.6-.6 1Zm14.2 2.2a9 9 0 0 0-2.8-1 27.4 27.4 0 0 0-8-.6c-1 0-2 .2-3 .5l1 1 .5-.3h.8c.2 0 .4.3.6.5l.3.4c.2.1.5.2.7.1l.9-.3.7-.3h.5c.2 0 .3.2.4.3l1 .6 1.3.1h.4l.8.1.5.3h.2l1 .4h.6c.5 0 1-.2 1.3-.4l1.1-.8-.8-.6Zm1.2 5.8v.4c-.6-1.2-.3-2.3.8-3.2.2-.2.5-.3.7-.3 1-.3 2-.4 3-.4s2 .2 3 .4c1.6.2 3.3.5 4.9 1.1 1.3.5 2.7 1 3.7 2 .2.8 0 1.6-.5 2.3a5 5 0 0 1-.6-1 5 5 0 0 0-1.5-1.7c-.2-.2-.4-.2-.7-.2-.3 0-.5.1-.7.3l-.5.3a1 1 0 0 1-.7 0l-.7-.6-.6-.4a1 1 0 0 0-.5-.1h-.5c-.3.2-.7.4-1 .4-.5 0-1 0-1.4-.2h-.3l-.9-.2-.5.1-.2.1h-1.8a6 6 0 0 0-1.2-.2c-.2 0-.5 0-.7.2-.3.3-.5.6-.6 1Zm11.4 1.3c1 .2 2 .5 2.8 1l.8.6a6.1 6.1 0 0 1-2.4 1.3l-.7-.1-1-.3-.2-.1-.4-.2-.9-.2h-.3l-1.4-.1-1-.6-.3-.2a1 1 0 0 0-.6 0l-.7.2c-.2.2-.5.3-.8.3a1 1 0 0 1-.7-.1l-.3-.4-.7-.5h-.7l-.5.3-1-1a27.3 27.3 0 0 1 11 0Z" clip-rule="evenodd" style="mix-blend-mode:multiply"/><use xlink:href="#reuse-9"/><path fill="url(#z)" d="M307.2 40.9c2.7 0 4.9-1.2 4.9-2.6 0-1.4-2.2-2.6-5-2.6-2.7 0-4.9 1.2-4.9 2.6 0 1.4 2.2 2.6 5 2.6Z"/><use xlink:href="#reuse-10"/><use xlink:href="#reuse-11"/><path fill="url(#A)" d="M262.7 34.5a4.3 4.3 0 0 0 0-6.1 4.3 4.3 0 0 0-6.2 0 4.3 4.3 0 0 0 0 6.1 4.3 4.3 0 0 0 6.2 0Z"/><use xlink:href="#reuse-12"/><path fill="url(#B)" d="M324 36.6v44.1c0 .9-.6 1.8-1.7 2.4a9.1 9.1 0 0 1-8.3 0c-1.1-.7-1.7-1.5-1.7-2.4V36.5c0 1 .6 1.8 1.8 2.4 2.2 1.4 6 1.4 8.2 0 1.1-.6 1.7-1.5 1.7-2.3Z"/><path fill="url(#C)" fill-rule="evenodd" d="M345.1 14.2a56.4 56.4 0 0 0-17.3-9.1 26.4 26.4 0 0 0-15-.3c-4 1-11.1 4.5-13.3 8-2.2 3.6-.5 6.4 2.6 9.4 2.9 2.8 9.7 7.1 17.2 9.7a27 27 0 0 0 15 1.3h.3l2.3-.7c5-1.6 9.3-4.4 11.4-6.7 3.6-4.5 1-8-3.2-11.6Zm-16 11.9c-4.4-1.2-10.5-5-14-7.3l-.3-.1c-1.3-1-2.6-1.7-3.6-3.2-1.6-2.3.5-4 3.1-4.5 3.6-.7 7.2.9 12.7 3.8h.2c3 1.7 11.3 6.1 10.6 9.2-.5 1.9-4.1 3.3-8.8 2Zm-39.4 8.6c0 .2.3.1 1.4 0 5.8-.9 11.7-.3 16 3.6 5.3 5.2.7 9.7-5.7 13.3-6 3.3-12.5 6.4-21.7 4.1-1.7-.4-3.7-1.3-4.9-2-5.8-3.4-4.1-6.3-3.2-7.8.2-.4.4-.7.4-1a17 17 0 0 1-13.6-2c-3.1-2-3.4-5.2-1.4-8a31.9 31.9 0 0 1 21.2-9.3c11.6 0 13.9 7.6 11.5 9.1Zm4.5 7.5c-3-1.6-6.2-1.8-9-1-2 .7-3.6 1.9-3.1 4 .6 1.7 3 3 4.8 3.5 2.5.7 6 .7 8.3-.7 2-1.3 2.3-4-1-5.8Zm-18-9.3a8.9 8.9 0 0 0-6.8.7c-1.7 1-2.5 2.3-1.2 3.8a8 8 0 0 0 6.2 2c1.6-.1 3.8-1 4.8-2.1 1.5-1.9-.7-3.7-3-4.4Zm42 .4c3.2 0 5.8 1.5 5.8 3.4 0 1.8-2.6 3.3-5.9 3.3-3.2 0-5.8-1.5-5.8-3.3 0-1.9 2.6-3.4 5.9-3.4Z" clip-rule="evenodd"/><path fill="url(#D)" fill-rule="evenodd" d="M345.1 14.2a56.4 56.4 0 0 0-17.3-9.1 26.4 26.4 0 0 0-15-.3c-4 1-11.1 4.5-13.3 8-2.2 3.6-.5 6.4 2.6 9.4 2.9 2.8 9.7 7.1 17.2 9.7a27 27 0 0 0 15 1.3h.3l2.3-.7c5-1.6 9.3-4.4 11.4-6.7 3.6-4.5 1-8-3.2-11.6Zm-16 11.9c-4.4-1.2-10.5-5-14-7.3l-.3-.1c-1.3-1-2.6-1.7-3.6-3.2-1.6-2.3.5-4 3.1-4.5 3.6-.7 7.2.9 12.7 3.8h.2c3 1.7 11.3 6.1 10.6 9.2-.5 1.9-4.1 3.3-8.8 2Zm-39.4 8.6c0 .2.3.1 1.4 0 5.8-.9 11.7-.3 16 3.6 5.3 5.2.7 9.7-5.7 13.3-6 3.3-12.5 6.4-21.7 4.1-1.7-.4-3.7-1.3-4.9-2-5.8-3.4-4.1-6.3-3.2-7.8.2-.4.4-.7.4-1a17 17 0 0 1-13.6-2c-3.1-2-3.4-5.2-1.4-8a31.9 31.9 0 0 1 21.2-9.3c11.6 0 13.9 7.6 11.5 9.1Zm4.5 7.5c-3-1.6-6.2-1.8-9-1-2 .7-3.6 1.9-3.1 4 .6 1.7 3 3 4.8 3.5 2.5.7 6 .7 8.3-.7 2-1.3 2.3-4-1-5.8Zm-18-9.3a8.9 8.9 0 0 0-6.8.7c-1.7 1-2.5 2.3-1.2 3.8a8 8 0 0 0 6.2 2c1.6-.1 3.8-1 4.8-2.1 1.5-1.9-.7-3.7-3-4.4Zm42 .4c3.2 0 5.8 1.5 5.8 3.4 0 1.8-2.6 3.3-5.9 3.3-3.2 0-5.8-1.5-5.8-3.3 0-1.9 2.6-3.4 5.9-3.4Z" clip-rule="evenodd" opacity=".3" style="mix-blend-mode:overlay"/><path fill="url(#E)" fill-rule="evenodd" d="M345.1 14.2a56.4 56.4 0 0 0-17.3-9.1 26.4 26.4 0 0 0-15-.3c-4 1-11.1 4.5-13.3 8-2.2 3.6-.5 6.4 2.6 9.4 2.9 2.8 9.7 7.1 17.2 9.7a27 27 0 0 0 15 1.3h.3l2.3-.7c5-1.6 9.3-4.4 11.4-6.7 3.6-4.5 1-8-3.2-11.6Zm-16 11.9c-4.4-1.2-10.5-5-14-7.3l-.3-.1c-1.3-1-2.6-1.7-3.6-3.2-1.6-2.3.5-4 3.1-4.5 3.6-.7 7.2.9 12.7 3.8h.2c3 1.7 11.3 6.1 10.6 9.2-.5 1.9-4.1 3.3-8.8 2Zm-39.4 8.6c0 .2.3.1 1.4 0 5.8-.9 11.7-.3 16 3.6 5.3 5.2.7 9.7-5.7 13.3-6 3.3-12.5 6.4-21.7 4.1-1.7-.4-3.7-1.3-4.9-2-5.8-3.4-4.1-6.3-3.2-7.8.2-.4.4-.7.4-1a17 17 0 0 1-13.6-2c-3.1-2-3.4-5.2-1.4-8a31.9 31.9 0 0 1 21.2-9.3c11.6 0 13.9 7.6 11.5 9.1Zm4.5 7.5c-3-1.6-6.2-1.8-9-1-2 .7-3.6 1.9-3.1 4 .6 1.7 3 3 4.8 3.5 2.5.7 6 .7 8.3-.7 2-1.3 2.3-4-1-5.8Zm-18-9.3a8.9 8.9 0 0 0-6.8.7c-1.7 1-2.5 2.3-1.2 3.8a8 8 0 0 0 6.2 2c1.6-.1 3.8-1 4.8-2.1 1.5-1.9-.7-3.7-3-4.4Zm42 .4c3.2 0 5.8 1.5 5.8 3.4 0 1.8-2.6 3.3-5.9 3.3-3.2 0-5.8-1.5-5.8-3.3 0-1.9 2.6-3.4 5.9-3.4Z" clip-rule="evenodd" opacity=".6" style="mix-blend-mode:screen"/><g style="mix-blend-mode:screen"><use xlink:href="#reuse-0"/><use xlink:href="#reuse-1"/><use xlink:href="#reuse-2"/><use xlink:href="#reuse-3"/><use xlink:href="#reuse-4"/><path fill="url(#F)" d="M295 32c2 1.1 2 3 0 4.1a8 8 0 0 1-7.2 0c-2-1.1-2-3 0-4.1a8 8 0 0 1 7.1 0Z"/><path fill="url(#G)" d="M337.8 24c-.5 1.9-4 3.3-8.8 2-4.3-1-10.4-4.9-14-7.2-1.4-1-2.7-1.8-3.8-3.3-1.6-2.3.5-4 3.1-4.5 3.6-.7 7.2.9 12.7 3.8 3 1.5 11.5 6 10.8 9.2Z"/><g style="mix-blend-mode:multiply"><path fill="url(#H)" d="m329.7 20 1-1.7.4-1.2-4-2.3V21l-.1 1.9-.6 1.7-.1.6a21.7 21.7 0 0 0 4.5 1.3c-.5-1-1.1-2-1.5-3.2-.2-.5-.3-1.1-.2-1.7l.6-1.5Z"/><path fill="url(#I)" d="M336.2 20.8c0 .8.2 1.5.3 2.3l.4 2.1c.5-.3.8-.8.9-1.2.2-1-.5-2-1.6-3.2Z"/><path fill="url(#J)" d="m321.8 16 .3-3.6a24 24 0 0 0-2.7-1c.3 1 .4 2 .3 2.9 0 .7-.1 1.3-.3 2l-1 1.8a7.5 7.5 0 0 0-.8 2.3l3 1.8c0-.6 0-1.2.2-1.8.3-1.5.8-3 1-4.5Z"/><path fill="url(#K)" d="M311.2 15.5c.4.5.7 1 1.1 1.3v-3.6l-.1-1.4c-1.4.8-2.1 2-1 3.7Z"/></g><path fill="url(#L)" d="M303.2 23.2c3.9 3.1 8.3 5.6 13 7.6a30.8 30.8 0 0 0 16.2 2.7c3.8-.5 6.7-1.6 10.2-3.5 4-2.3 7.3-4.6 7.4-8.5v42c0 2.2-.9 3.5-2.5 5.1a31.2 31.2 0 0 1-13.8 6.7c-6 1-10.8 0-16.7-2.2-5-2-10.2-4.8-14.4-8.4-3.6-3.3-4-5-4.1-6.8V15.7c0 2.2 1 4.3 4.7 7.5Z"/><g style="mix-blend-mode:multiply"><path fill="url(#M)" d="m339.5 72.9.7-2.5a34.5 34.5 0 0 0 .8-9.8l-.3-2.4c0-.9 0-1.6.3-2.4l.8-2.2c.2-.9.3-1.7.3-2.6 0-1.7-.2-3.4-.4-5.2 0-1.7-.2-3.4-.4-5.2-.2-1.6-.7-3.2-1-4.8-.3-1.5-.4-3-.3-4.5-1 .5-2 .9-3.2 1.2v3.7c.2.7.5 1.4 1 2l.9 2c.3.7.4 1.5.4 2.2 0 1.5-.2 3-.7 4.5-.5 1.5-1.2 3-1.4 4.5a6 6 0 0 0 0 2.3l.7 2c.4.6.7 1.3.9 2.1.2.8.1 1.6 0 2.4-.3 1.6-.9 3-1.4 4.6a24.6 24.6 0 0 0-.8 9.8l3-1 .1-.7Z"/><path fill="url(#N)" d="m350 37-.6-1.5c-.1-.7 0-1.3.2-2l.4-.9v-11c0 1.4-.6 2.7-1.4 3.8 0 .6-.2 1.1-.4 1.6l-1.4 2.4c-.5.9-.7 1.8-.4 2.8l.7 1.9c.2.7.2 1.4.1 2v5L347 46v4.9c0 1.5.2 3 .5 4.4.3 1.4.5 2.8.4 4.3 0 .7-.3 1.5-.4 2.2L347 64a9.3 9.3 0 0 0 .4 4.5c1.6-1.6 2.4-2.9 2.5-5V36.8Z"/><path fill="url(#O)" d="M331 53.1a16 16 0 0 1-1.3-4.4l-.7-4.6-.7-4.9-.4-4.8-.2-.7-2-.2v1l-.1 5c0 3.1 1.3 6 1.8 9 .4 3.2-.1 6.4-.2 9.6-.1 1.6 0 3.2.2 4.8l.5 2.4a25.3 25.3 0 0 1 .3 7.5c0 1-.3 2-.4 2.9l4.1-.1c.4-3 0-6 .2-8.8 0-1.7.3-3.4.4-5a50.7 50.7 0 0 0 0-5c-.2-1.3-.9-2.5-1.5-3.7Z"/><path fill="url(#P)" d="M301.3 32.1c-.2-1.6-.7-3.2-1-4.8a16.8 16.8 0 0 1 0-7.2c-1.3-1.6-1.8-2.7-1.8-4.2v15.5a6.4 6.4 0 0 1 .6 2.5c0 1.4-.2 2.8-.6 4V49.4c.2.8.2 1.6 0 2.4v6.2c0 1.2.2 2.4 1.6 4.2v-.2a34.5 34.5 0 0 0 .8-9.8l-.2-2.4c-.1-.8 0-1.6.3-2.4.2-.7.6-1.5.7-2.2.2-.8.3-1.7.3-2.5 0-1.8-.2-3.5-.3-5.2l-.4-5.2Z"/><path fill="url(#Q)" d="M310.7 70.1v-.9c0-.7-.2-1.3-.3-2a18.3 18.3 0 0 1-.2-7.2c.4-1.7.9-3.3 1-5 .3-1.6.4-3.4.5-5.1l.3-5.2c0-.9 0-1.7-.3-2.6-.1-.7-.5-1.4-.7-2.1-.3-.8-.4-1.6-.3-2.5l.3-2.4a34.5 34.5 0 0 0-.3-7c-1.6-.8-3-1.7-4.5-2.7a17.8 17.8 0 0 0 1 5.5l1.4 4.6V38c-.2.8-.6 1.5-.9 2.2a10 10 0 0 0-.7 2 6 6 0 0 0 0 2.2c.2 1.6.9 3 1.4 4.5.5 1.4.7 3 .7 4.5 0 .7-.2 1.5-.4 2.2l-1 2c-.4.6-.7 1.3-.9 2-.2.8-.2 1.7-.1 2.5l.3 2.4a28.2 28.2 0 0 1 .2 3.6c1.1.8 2.3 1.5 3.5 2.1Z"/><path fill="url(#R)" d="m317.4 73.3 3.8 1.2c.5-1.1.7-2.4.8-3.7 0-1.4-.2-2.7-.7-4-.6-1.3-1.3-2.4-1.7-3.7-.3-.6-.4-1.2-.2-1.9 0-.6.3-1 .6-1.6a9.8 9.8 0 0 0 1.6-3.9c.3-1.5.3-3 .4-4.5l-.3-4.8a166 166 0 0 0-1-9.6l-.3-2.7-.1-1.8-3.4-1.2.1 1.5.4 2.3c.2.8.4 1.5.4 2.2.1 1.5 0 3-.3 4.3-.3 1.5-.6 3-.6 4.4l.1 5 .1 4.8.1 5c0 .6 0 1.3-.2 2l-.6 2c-.3.9-.1 1.8.3 2.7l1.4 2.4c.4.7.6 1.6.2 2.4l-.9 1.2Z"/></g><use xlink:href="#reuse-5"/><path fill="#00F5FE" d="M292.4 15v-.2l.1-.2 11.6-2.4h.1l.2.2-12 2.6ZM292.2 14l.2-.1 10.8-2.3h.3c.2.2.1.3-.1.4l-10.8 2.2c-.2 0-.4 0-.4-.2ZM298 10.5h.1c.4 0 .5.3.2.3l-3 .7c-.3 0-.6-.2-.3-.3l3-.7ZM300.9 11l-7.4 1.6c-.3 0-.5-.1-.4-.3h.2l7.4-1.6h.2c.2 0 .3.3 0 .3ZM292.4 13.5v-.3l.3-.1 9.4-2h.3l.4.2-10.3 2.2h-.1ZM304.7 13.2 293 15.6l-.4-.1s0-.2.2-.2l11.7-2.5.3.1c.1.1 0 .2-.1.3ZM299.4 18c-.4 0-.5-.3-.2-.4l3-.6c.3-.1.6.2.3.3h-.1l-3 .6ZM304.2 16.2l-7.4 1.5a.5.5 0 0 1-.2 0c-.3 0-.3-.2 0-.3L304 16c.2 0 .5 0 .3.2l-.1.1ZM295 17.3c-.1 0-.1-.3.1-.3l9.5-2c.2 0 .5 0 .4.2l-.2.1-9.5 2h-.2ZM293.2 16.2c-.1-.1 0-.3.1-.3l11.5-2.4.4.1c0 .1 0 .2-.2.2l-11.5 2.4h-.3ZM294 16.8c-.2-.1-.1-.3 0-.3l10.8-2.3c.2 0 .4 0 .4.2l-.2.1-10.7 2.3h-.3Z"/><use xlink:href="#reuse-6"/><use xlink:href="#reuse-7" style="mix-blend-mode:multiply"/><use xlink:href="#reuse-8"/><path fill="url(#S)" d="M277.8 53.8c-3.2-1.1-6.8-1.7-7.1-5.1v42c.4 4.6 10.5 10.4 22.8 6.6 5-1.7 15.8-7 16-12.3V43c-.2 5.2-16.9 15.5-31.7 10.8Z"/><path fill="url(#T)" d="M295.2 42.1a13 13 0 0 0-11.3-1c-3.5 1.6-4 4.4.2 7 3.7 2 8.1 2 11.2.6 3.2-1.8 3-4.5-.1-6.6Z"/><path fill="url(#U)" d="M255.7 39v-.1V81c.4 4.3 7.2 7.5 15 6.4V47.9c.2-.9 1.7-2.8 1.7-2.9h-.4c-5 .4-15.7-.6-16.3-6Z"/><g style="mix-blend-mode:multiply"><path fill="url(#V)" d="M255.7 52c.7 0 1.4.1 2 .4.6.2 1 .5 1.4.8l.6.7.6.6a12.9 12.9 0 0 0 4 3l1.5.6c.5.1 1 .2 1.5 0 .5 0 1-.4 1.3-.8l.7-1.1.6-1c.2-.3.5-.5.8-.6v-3.1c-2.8 1.7-11 1.1-15-3V52Z"/><path fill="url(#W)" d="M260.4 68.5c.4.6.9 1.2 1.6 1.4.4.2 1 .2 1.4.2.7 0 1.3-.2 2-.3.6-.1 1.3-.2 2-.1l2 .2 1.3.1v-5.4c-4.9 1.5-12.3-.4-15-4.5v6.6c.9.1 1.8 0 2.6.2.9.2 1.5.9 2 1.6Z"/></g><path fill="url(#X)" d="M280.8 34a11 11 0 0 0-8.7-2.5c-5.2.7-9 4.3-4.4 7.4 3 1.8 6.3 2 9.3 1.2 3.4-1 6.2-3.4 3.8-6Z"/><path fill="url(#Y)" fill-rule="evenodd" d="M266 37v.3c-.6-1.2-.2-2.3.8-3.3l.7-.2c1-.3 2-.4 3-.4s2 .2 3 .4c1.6.2 3.3.5 5 1 1.2.6 2.6 1.2 3.7 2.1.1.8 0 1.6-.5 2.3a5 5 0 0 1-.6-1 5 5 0 0 0-1.5-1.7c-.2-.2-.5-.2-.8-.2-.2 0-.5.1-.7.3l-.4.3a1 1 0 0 1-.7 0l-.8-.6-.6-.4a1 1 0 0 0-.5-.1h-.4c-.4.2-.7.4-1.1.4-.5 0-1 0-1.4-.2h-.3l-.8-.2-.5.1-.3.1h-1.7a6 6 0 0 0-1.2-.2c-.3 0-.6 0-.8.2-.3.3-.5.6-.6 1Zm14.2 2.2a9 9 0 0 0-2.8-1 27.4 27.4 0 0 0-8-.6c-1 0-2 .2-3 .5l1 1 .5-.3h.8c.2 0 .4.3.6.5l.3.4c.2.1.5.2.7.1l.9-.3.7-.3h.5c.2 0 .3.2.4.3l1 .6 1.3.1h.4l.8.1.5.3h.2l1 .4h.6c.5 0 1-.2 1.3-.4l1.1-.8-.8-.6Zm1.2 5.8v.4c-.6-1.2-.3-2.3.8-3.2.2-.2.5-.3.7-.3 1-.3 2-.4 3-.4s2 .2 3 .4c1.6.2 3.3.5 4.9 1.1 1.3.5 2.7 1 3.7 2 .2.8 0 1.6-.5 2.3a5 5 0 0 1-.6-1 5 5 0 0 0-1.5-1.7c-.2-.2-.4-.2-.7-.2-.3 0-.5.1-.7.3l-.5.3a1 1 0 0 1-.7 0l-.7-.6-.6-.4a1 1 0 0 0-.5-.1h-.5c-.3.2-.7.4-1 .4-.5 0-1 0-1.4-.2h-.3l-.9-.2-.5.1-.2.1h-1.8a6 6 0 0 0-1.2-.2c-.2 0-.5 0-.7.2-.3.3-.5.6-.6 1Zm11.4 1.3c1 .2 2 .5 2.8 1l.8.6a6.1 6.1 0 0 1-2.4 1.3l-.7-.1-1-.3-.2-.1-.4-.2-.9-.2h-.3l-1.4-.1-1-.6-.3-.2a1 1 0 0 0-.6 0l-.7.2c-.2.2-.5.3-.8.3a1 1 0 0 1-.7-.1l-.3-.4-.7-.5h-.7l-.5.3-1-1a27.3 27.3 0 0 1 11 0Z" clip-rule="evenodd" style="mix-blend-mode:multiply"/><use xlink:href="#reuse-9"/><path fill="url(#Z)" d="M307.2 40.9c2.7 0 4.9-1.2 4.9-2.6 0-1.4-2.2-2.6-5-2.6-2.7 0-4.9 1.2-4.9 2.6 0 1.4 2.2 2.6 5 2.6Z"/><use xlink:href="#reuse-10"/><use xlink:href="#reuse-11"/><path fill="url(#aa)" d="M262.7 34.5a4.3 4.3 0 0 0 0-6.1 4.3 4.3 0 0 0-6.2 0 4.3 4.3 0 0 0 0 6.1 4.3 4.3 0 0 0 6.2 0Z"/><use xlink:href="#reuse-12"/><path fill="url(#ab)" d="M324 36.6v44.1c0 .9-.6 1.8-1.7 2.4a9.1 9.1 0 0 1-8.3 0c-1.1-.7-1.7-1.5-1.7-2.4V36.5c0 1 .6 1.8 1.8 2.4 2.2 1.4 6 1.4 8.2 0 1.1-.6 1.7-1.5 1.7-2.3Z"/><path fill="url(#ac)" fill-rule="evenodd" d="M345.1 14.2a56.4 56.4 0 0 0-17.3-9.1 26.4 26.4 0 0 0-15-.3c-4 1-11.1 4.5-13.3 8-2.2 3.6-.5 6.4 2.6 9.4 2.9 2.8 9.7 7.1 17.2 9.7a27 27 0 0 0 15 1.3h.3l2.3-.7c5-1.6 9.3-4.4 11.4-6.7 3.6-4.5 1-8-3.2-11.6Zm-16 11.9c-4.4-1.2-10.5-5-14-7.3l-.3-.1c-1.3-1-2.6-1.7-3.6-3.2-1.6-2.3.5-4 3.1-4.5 3.6-.7 7.2.9 12.7 3.8h.2c3 1.7 11.3 6.1 10.6 9.2-.5 1.9-4.1 3.3-8.8 2Zm-39.4 8.6c0 .2.3.1 1.4 0 5.8-.9 11.7-.3 16 3.6 5.3 5.2.7 9.7-5.7 13.3-6 3.3-12.5 6.4-21.7 4.1-1.7-.4-3.7-1.3-4.9-2-5.8-3.4-4.1-6.3-3.2-7.8.2-.4.4-.7.4-1a17 17 0 0 1-13.6-2c-3.1-2-3.4-5.2-1.4-8a31.9 31.9 0 0 1 21.2-9.3c11.6 0 13.9 7.6 11.5 9.1Zm4.5 7.5c-3-1.6-6.2-1.8-9-1-2 .7-3.6 1.9-3.1 4 .6 1.7 3 3 4.8 3.5 2.5.7 6 .7 8.3-.7 2-1.3 2.3-4-1-5.8Zm-18-9.3a8.9 8.9 0 0 0-6.8.7c-1.7 1-2.5 2.3-1.2 3.8a8 8 0 0 0 6.2 2c1.6-.1 3.8-1 4.8-2.1 1.5-1.9-.7-3.7-3-4.4Zm42 .4c3.2 0 5.8 1.5 5.8 3.4 0 1.8-2.6 3.3-5.9 3.3-3.2 0-5.8-1.5-5.8-3.3 0-1.9 2.6-3.4 5.9-3.4Z" clip-rule="evenodd"/><path fill="url(#ad)" fill-rule="evenodd" d="M345.1 14.2a56.4 56.4 0 0 0-17.3-9.1 26.4 26.4 0 0 0-15-.3c-4 1-11.1 4.5-13.3 8-2.2 3.6-.5 6.4 2.6 9.4 2.9 2.8 9.7 7.1 17.2 9.7a27 27 0 0 0 15 1.3h.3l2.3-.7c5-1.6 9.3-4.4 11.4-6.7 3.6-4.5 1-8-3.2-11.6Zm-16 11.9c-4.4-1.2-10.5-5-14-7.3l-.3-.1c-1.3-1-2.6-1.7-3.6-3.2-1.6-2.3.5-4 3.1-4.5 3.6-.7 7.2.9 12.7 3.8h.2c3 1.7 11.3 6.1 10.6 9.2-.5 1.9-4.1 3.3-8.8 2Zm-39.4 8.6c0 .2.3.1 1.4 0 5.8-.9 11.7-.3 16 3.6 5.3 5.2.7 9.7-5.7 13.3-6 3.3-12.5 6.4-21.7 4.1-1.7-.4-3.7-1.3-4.9-2-5.8-3.4-4.1-6.3-3.2-7.8.2-.4.4-.7.4-1a17 17 0 0 1-13.6-2c-3.1-2-3.4-5.2-1.4-8a31.9 31.9 0 0 1 21.2-9.3c11.6 0 13.9 7.6 11.5 9.1Zm4.5 7.5c-3-1.6-6.2-1.8-9-1-2 .7-3.6 1.9-3.1 4 .6 1.7 3 3 4.8 3.5 2.5.7 6 .7 8.3-.7 2-1.3 2.3-4-1-5.8Zm-18-9.3a8.9 8.9 0 0 0-6.8.7c-1.7 1-2.5 2.3-1.2 3.8a8 8 0 0 0 6.2 2c1.6-.1 3.8-1 4.8-2.1 1.5-1.9-.7-3.7-3-4.4Zm42 .4c3.2 0 5.8 1.5 5.8 3.4 0 1.8-2.6 3.3-5.9 3.3-3.2 0-5.8-1.5-5.8-3.3 0-1.9 2.6-3.4 5.9-3.4Z" clip-rule="evenodd" opacity=".3" style="mix-blend-mode:overlay"/><path fill="url(#ae)" fill-rule="evenodd" d="M345.1 14.2a56.4 56.4 0 0 0-17.3-9.1 26.4 26.4 0 0 0-15-.3c-4 1-11.1 4.5-13.3 8-2.2 3.6-.5 6.4 2.6 9.4 2.9 2.8 9.7 7.1 17.2 9.7a27 27 0 0 0 15 1.3h.3l2.3-.7c5-1.6 9.3-4.4 11.4-6.7 3.6-4.5 1-8-3.2-11.6Zm-16 11.9c-4.4-1.2-10.5-5-14-7.3l-.3-.1c-1.3-1-2.6-1.7-3.6-3.2-1.6-2.3.5-4 3.1-4.5 3.6-.7 7.2.9 12.7 3.8h.2c3 1.7 11.3 6.1 10.6 9.2-.5 1.9-4.1 3.3-8.8 2Zm-39.4 8.6c0 .2.3.1 1.4 0 5.8-.9 11.7-.3 16 3.6 5.3 5.2.7 9.7-5.7 13.3-6 3.3-12.5 6.4-21.7 4.1-1.7-.4-3.7-1.3-4.9-2-5.8-3.4-4.1-6.3-3.2-7.8.2-.4.4-.7.4-1a17 17 0 0 1-13.6-2c-3.1-2-3.4-5.2-1.4-8a31.9 31.9 0 0 1 21.2-9.3c11.6 0 13.9 7.6 11.5 9.1Zm4.5 7.5c-3-1.6-6.2-1.8-9-1-2 .7-3.6 1.9-3.1 4 .6 1.7 3 3 4.8 3.5 2.5.7 6 .7 8.3-.7 2-1.3 2.3-4-1-5.8Zm-18-9.3a8.9 8.9 0 0 0-6.8.7c-1.7 1-2.5 2.3-1.2 3.8a8 8 0 0 0 6.2 2c1.6-.1 3.8-1 4.8-2.1 1.5-1.9-.7-3.7-3-4.4Zm42 .4c3.2 0 5.8 1.5 5.8 3.4 0 1.8-2.6 3.3-5.9 3.3-3.2 0-5.8-1.5-5.8-3.3 0-1.9 2.6-3.4 5.9-3.4Z" clip-rule="evenodd" opacity=".6" style="mix-blend-mode:screen"/></g><g opacity=".5" style="mix-blend-mode:screen"><use xlink:href="#reuse-0"/><use xlink:href="#reuse-1"/><use xlink:href="#reuse-2"/><use xlink:href="#reuse-3"/><use xlink:href="#reuse-4"/><path fill="url(#af)" d="M295 32c2 1.1 2 3 0 4.1a8 8 0 0 1-7.2 0c-2-1.1-2-3 0-4.1a8 8 0 0 1 7.1 0Z"/><path fill="url(#ag)" d="M337.8 24c-.5 1.9-4 3.3-8.8 2-4.3-1-10.4-4.9-14-7.2-1.4-1-2.7-1.8-3.8-3.3-1.6-2.3.5-4 3.1-4.5 3.6-.7 7.2.9 12.7 3.8 3 1.5 11.5 6 10.8 9.2Z"/><g style="mix-blend-mode:multiply"><path fill="url(#ah)" d="m329.7 20 1-1.7.4-1.2-4-2.3V21l-.1 1.9-.6 1.7-.1.6a21.7 21.7 0 0 0 4.5 1.3c-.5-1-1.1-2-1.5-3.2-.2-.5-.3-1.1-.2-1.7l.6-1.5Z"/><path fill="url(#ai)" d="M336.2 20.8c0 .8.2 1.5.3 2.3l.4 2.1c.5-.3.8-.8.9-1.2.2-1-.5-2-1.6-3.2Z"/><path fill="url(#aj)" d="m321.8 16 .3-3.6a24 24 0 0 0-2.7-1c.3 1 .4 2 .3 2.9 0 .7-.1 1.3-.3 2l-1 1.8a7.5 7.5 0 0 0-.8 2.3l3 1.8c0-.6 0-1.2.2-1.8.3-1.5.8-3 1-4.5Z"/><path fill="url(#ak)" d="M311.2 15.5c.4.5.7 1 1.1 1.3v-3.6l-.1-1.4c-1.4.8-2.1 2-1 3.7Z"/></g><path fill="url(#al)" d="M303.2 23.2c3.9 3.1 8.3 5.6 13 7.6a30.8 30.8 0 0 0 16.2 2.7c3.8-.5 6.7-1.6 10.2-3.5 4-2.3 7.3-4.6 7.4-8.5v42c0 2.2-.9 3.5-2.5 5.1a31.2 31.2 0 0 1-13.8 6.7c-6 1-10.8 0-16.7-2.2-5-2-10.2-4.8-14.4-8.4-3.6-3.3-4-5-4.1-6.8V15.7c0 2.2 1 4.3 4.7 7.5Z"/><g style="mix-blend-mode:multiply"><path fill="url(#am)" d="m339.5 72.9.7-2.5a34.5 34.5 0 0 0 .8-9.8l-.3-2.4c0-.9 0-1.6.3-2.4l.8-2.2c.2-.9.3-1.7.3-2.6 0-1.7-.2-3.4-.4-5.2 0-1.7-.2-3.4-.4-5.2-.2-1.6-.7-3.2-1-4.8-.3-1.5-.4-3-.3-4.5-1 .5-2 .9-3.2 1.2v3.7c.2.7.5 1.4 1 2l.9 2c.3.7.4 1.5.4 2.2 0 1.5-.2 3-.7 4.5-.5 1.5-1.2 3-1.4 4.5a6 6 0 0 0 0 2.3l.7 2c.4.6.7 1.3.9 2.1.2.8.1 1.6 0 2.4-.3 1.6-.9 3-1.4 4.6a24.6 24.6 0 0 0-.8 9.8l3-1 .1-.7Z"/><path fill="url(#an)" d="m350 37-.6-1.5c-.1-.7 0-1.3.2-2l.4-.9v-11c0 1.4-.6 2.7-1.4 3.8 0 .6-.2 1.1-.4 1.6l-1.4 2.4c-.5.9-.7 1.8-.4 2.8l.7 1.9c.2.7.2 1.4.1 2v5L347 46v4.9c0 1.5.2 3 .5 4.4.3 1.4.5 2.8.4 4.3 0 .7-.3 1.5-.4 2.2L347 64a9.3 9.3 0 0 0 .4 4.5c1.6-1.6 2.4-2.9 2.5-5V36.8Z"/><path fill="url(#ao)" d="M331 53.1a16 16 0 0 1-1.3-4.4l-.7-4.6-.7-4.9-.4-4.8-.2-.7-2-.2v1l-.1 5c0 3.1 1.3 6 1.8 9 .4 3.2-.1 6.4-.2 9.6-.1 1.6 0 3.2.2 4.8l.5 2.4a25.3 25.3 0 0 1 .3 7.5c0 1-.3 2-.4 2.9l4.1-.1c.4-3 0-6 .2-8.8 0-1.7.3-3.4.4-5a50.7 50.7 0 0 0 0-5c-.2-1.3-.9-2.5-1.5-3.7Z"/><path fill="url(#ap)" d="M301.3 32.1c-.2-1.6-.7-3.2-1-4.8a16.8 16.8 0 0 1 0-7.2c-1.3-1.6-1.8-2.7-1.8-4.2v15.5a6.4 6.4 0 0 1 .6 2.5c0 1.4-.2 2.8-.6 4V49.4c.2.8.2 1.6 0 2.4v6.2c0 1.2.2 2.4 1.6 4.2v-.2a34.5 34.5 0 0 0 .8-9.8l-.2-2.4c-.1-.8 0-1.6.3-2.4.2-.7.6-1.5.7-2.2.2-.8.3-1.7.3-2.5 0-1.8-.2-3.5-.3-5.2l-.4-5.2Z"/><path fill="url(#aq)" d="M310.7 70.1v-.9c0-.7-.2-1.3-.3-2a18.3 18.3 0 0 1-.2-7.2c.4-1.7.9-3.3 1-5 .3-1.6.4-3.4.5-5.1l.3-5.2c0-.9 0-1.7-.3-2.6-.1-.7-.5-1.4-.7-2.1-.3-.8-.4-1.6-.3-2.5l.3-2.4a34.5 34.5 0 0 0-.3-7c-1.6-.8-3-1.7-4.5-2.7a17.8 17.8 0 0 0 1 5.5l1.4 4.6V38c-.2.8-.6 1.5-.9 2.2a10 10 0 0 0-.7 2 6 6 0 0 0 0 2.2c.2 1.6.9 3 1.4 4.5.5 1.4.7 3 .7 4.5 0 .7-.2 1.5-.4 2.2l-1 2c-.4.6-.7 1.3-.9 2-.2.8-.2 1.7-.1 2.5l.3 2.4a28.2 28.2 0 0 1 .2 3.6c1.1.8 2.3 1.5 3.5 2.1Z"/><path fill="url(#ar)" d="m317.4 73.3 3.8 1.2c.5-1.1.7-2.4.8-3.7 0-1.4-.2-2.7-.7-4-.6-1.3-1.3-2.4-1.7-3.7-.3-.6-.4-1.2-.2-1.9 0-.6.3-1 .6-1.6a9.8 9.8 0 0 0 1.6-3.9c.3-1.5.3-3 .4-4.5l-.3-4.8a166 166 0 0 0-1-9.6l-.3-2.7-.1-1.8-3.4-1.2.1 1.5.4 2.3c.2.8.4 1.5.4 2.2.1 1.5 0 3-.3 4.3-.3 1.5-.6 3-.6 4.4l.1 5 .1 4.8.1 5c0 .6 0 1.3-.2 2l-.6 2c-.3.9-.1 1.8.3 2.7l1.4 2.4c.4.7.6 1.6.2 2.4l-.9 1.2Z"/></g><path fill="#A0F" d="M307.7 17.7c0-.2-.1-.2-.2-.3l-8 1.7.1.3 8.1-1.7ZM306 16.5l-.3-.2h-.2l-6.7 1.4.1.4 7.1-1.5c.1 0 .1 0 0-.1ZM300.1 20l7.9-1.6.2-.2-.4-.2-8 1.7.3.3ZM304.2 15.9h-.2l-5.4 1.1v.4l5.6-1.2c.3 0 .3-.2 0-.3ZM306.8 16.9h-.3l-7.4 1.5.1.3 7.5-1.5c.2 0 .3-.2.1-.3ZM298.5 16.7h.1l3-.7c.3 0 .2-.3-.1-.3h-.1l-2.9.6v.4ZM302.4 22.5l5.1-1a.3.3 0 0 0 .2-.2c.1-.1-.1-.3-.4-.2l-5.2 1v.1l.3.3ZM305.7 22.5c.4-.1.1-.4-.2-.3l-2.8.6.4.3 2.6-.6ZM308.1 20.5h.2c.1-.2-.1-.3-.4-.3l-6.5 1.4.4.3 6.3-1.4ZM308.3 19l.2-.1c0-.2-.2-.2-.4-.2l-7.8 1.6.3.4 7.7-1.7ZM308.6 19.6l-.4-.2-7.3 1.6.3.3 7.2-1.5.2-.2ZM330 16.4l6.6-3.8-1.1-.7-6.7 3.9 1.2.6Z"/><use xlink:href="#reuse-7" style="mix-blend-mode:multiply"/><use xlink:href="#reuse-8"/><path fill="url(#as)" d="M277.8 53.8c-3.2-1.1-6.8-1.7-7.1-5.1v42c.4 4.6 10.5 10.4 22.8 6.6 5-1.7 15.8-7 16-12.3V43c-.2 5.2-16.9 15.5-31.7 10.8Z"/><path fill="url(#at)" d="M295.2 42.1a13 13 0 0 0-11.3-1c-3.5 1.6-4 4.4.2 7 3.7 2 8.1 2 11.2.6 3.2-1.8 3-4.5-.1-6.6Z"/><path fill="url(#au)" d="M255.7 39v-.1V81c.4 4.3 7.2 7.5 15 6.4V47.9c.2-.9 1.7-2.8 1.7-2.9h-.4c-5 .4-15.7-.6-16.3-6Z"/><g style="mix-blend-mode:multiply"><path fill="url(#av)" d="M255.7 52c.7 0 1.4.1 2 .4.6.2 1 .5 1.4.8l.6.7.6.6a12.9 12.9 0 0 0 4 3l1.5.6c.5.1 1 .2 1.5 0 .5 0 1-.4 1.3-.8l.7-1.1.6-1c.2-.3.5-.5.8-.6v-3.1c-2.8 1.7-11 1.1-15-3V52Z"/><path fill="url(#aw)" d="M260.4 68.5c.4.6.9 1.2 1.6 1.4.4.2 1 .2 1.4.2.7 0 1.3-.2 2-.3.6-.1 1.3-.2 2-.1l2 .2 1.3.1v-5.4c-4.9 1.5-12.3-.4-15-4.5v6.6c.9.1 1.8 0 2.6.2.9.2 1.5.9 2 1.6Z"/></g><path fill="url(#ax)" d="M280.8 34a11 11 0 0 0-8.7-2.5c-5.2.7-9 4.3-4.4 7.4 3 1.8 6.3 2 9.3 1.2 3.4-1 6.2-3.4 3.8-6Z"/><path fill="url(#ay)" fill-rule="evenodd" d="M266 37v.3c-.6-1.2-.2-2.3.8-3.3l.7-.2c1-.3 2-.4 3-.4s2 .2 3 .4c1.6.2 3.3.5 5 1 1.2.6 2.6 1.2 3.7 2.1.1.8 0 1.6-.5 2.3a5 5 0 0 1-.6-1 5 5 0 0 0-1.5-1.7c-.2-.2-.5-.2-.8-.2-.2 0-.5.1-.7.3l-.4.3a1 1 0 0 1-.7 0l-.8-.6-.6-.4a1 1 0 0 0-.5-.1h-.4c-.4.2-.7.4-1.1.4-.5 0-1 0-1.4-.2h-.3l-.8-.2-.5.1-.3.1h-1.7a6 6 0 0 0-1.2-.2c-.3 0-.6 0-.8.2-.3.3-.5.6-.6 1Zm14.2 2.2a9 9 0 0 0-2.8-1 27.4 27.4 0 0 0-8-.6c-1 0-2 .2-3 .5l1 1 .5-.3h.8c.2 0 .4.3.6.5l.3.4c.2.1.5.2.7.1l.9-.3.7-.3h.5c.2 0 .3.2.4.3l1 .6 1.3.1h.4l.8.1.5.3h.2l1 .4h.6c.5 0 1-.2 1.3-.4l1.1-.8-.8-.6Zm1.2 5.8v.4c-.6-1.2-.3-2.3.8-3.2.2-.2.5-.3.7-.3 1-.3 2-.4 3-.4s2 .2 3 .4c1.6.2 3.3.5 4.9 1.1 1.3.5 2.7 1 3.7 2 .2.8 0 1.6-.5 2.3a5 5 0 0 1-.6-1 5 5 0 0 0-1.5-1.7c-.2-.2-.4-.2-.7-.2-.3 0-.5.1-.7.3l-.5.3a1 1 0 0 1-.7 0l-.7-.6-.6-.4a1 1 0 0 0-.5-.1h-.5c-.3.2-.7.4-1 .4-.5 0-1 0-1.4-.2h-.3l-.9-.2-.5.1-.2.1h-1.8a6 6 0 0 0-1.2-.2c-.2 0-.5 0-.7.2-.3.3-.5.6-.6 1Zm11.4 1.3c1 .2 2 .5 2.8 1l.8.6a6.1 6.1 0 0 1-2.4 1.3l-.7-.1-1-.3-.2-.1-.4-.2-.9-.2h-.3l-1.4-.1-1-.6-.3-.2a1 1 0 0 0-.6 0l-.7.2c-.2.2-.5.3-.8.3a1 1 0 0 1-.7-.1l-.3-.4-.7-.5h-.7l-.5.3-1-1a27.3 27.3 0 0 1 11 0Z" clip-rule="evenodd" style="mix-blend-mode:multiply"/><use xlink:href="#reuse-9"/><path fill="url(#az)" d="M307.2 40.9c2.7 0 4.9-1.2 4.9-2.6 0-1.4-2.2-2.6-5-2.6-2.7 0-4.9 1.2-4.9 2.6 0 1.4 2.2 2.6 5 2.6Z"/><use xlink:href="#reuse-10"/><use xlink:href="#reuse-11"/><path fill="url(#aA)" d="M262.7 34.5a4.3 4.3 0 0 0 0-6.1 4.3 4.3 0 0 0-6.2 0 4.3 4.3 0 0 0 0 6.1 4.3 4.3 0 0 0 6.2 0Z"/><use xlink:href="#reuse-12"/><path fill="url(#aB)" d="M324 36.6v44.1c0 .9-.6 1.8-1.7 2.4a9.1 9.1 0 0 1-8.3 0c-1.1-.7-1.7-1.5-1.7-2.4V36.5c0 1 .6 1.8 1.8 2.4 2.2 1.4 6 1.4 8.2 0 1.1-.6 1.7-1.5 1.7-2.3Z"/><path fill="url(#aC)" fill-rule="evenodd" d="M345.1 14.2a56.4 56.4 0 0 0-17.3-9.1 26.4 26.4 0 0 0-15-.3c-4 1-11.1 4.5-13.3 8-2.2 3.6-.5 6.4 2.6 9.4 2.9 2.8 9.7 7.1 17.2 9.7a27 27 0 0 0 15 1.3h.3l2.3-.7c5-1.6 9.3-4.4 11.4-6.7 3.6-4.5 1-8-3.2-11.6Zm-16 11.9c-4.4-1.2-10.5-5-14-7.3l-.3-.1c-1.3-1-2.6-1.7-3.6-3.2-1.6-2.3.5-4 3.1-4.5 3.6-.7 7.2.9 12.7 3.8h.2c3 1.7 11.3 6.1 10.6 9.2-.5 1.9-4.1 3.3-8.8 2Zm-39.4 8.6c0 .2.3.1 1.4 0 5.8-.9 11.7-.3 16 3.6 5.3 5.2.7 9.7-5.7 13.3-6 3.3-12.5 6.4-21.7 4.1-1.7-.4-3.7-1.3-4.9-2-5.8-3.4-4.1-6.3-3.2-7.8.2-.4.4-.7.4-1a17 17 0 0 1-13.6-2c-3.1-2-3.4-5.2-1.4-8a31.9 31.9 0 0 1 21.2-9.3c11.6 0 13.9 7.6 11.5 9.1Zm4.5 7.5c-3-1.6-6.2-1.8-9-1-2 .7-3.6 1.9-3.1 4 .6 1.7 3 3 4.8 3.5 2.5.7 6 .7 8.3-.7 2-1.3 2.3-4-1-5.8Zm-18-9.3a8.9 8.9 0 0 0-6.8.7c-1.7 1-2.5 2.3-1.2 3.8a8 8 0 0 0 6.2 2c1.6-.1 3.8-1 4.8-2.1 1.5-1.9-.7-3.7-3-4.4Zm42 .4c3.2 0 5.8 1.5 5.8 3.4 0 1.8-2.6 3.3-5.9 3.3-3.2 0-5.8-1.5-5.8-3.3 0-1.9 2.6-3.4 5.9-3.4Z" clip-rule="evenodd"/><path fill="url(#aD)" fill-rule="evenodd" d="M345.1 14.2a56.4 56.4 0 0 0-17.3-9.1 26.4 26.4 0 0 0-15-.3c-4 1-11.1 4.5-13.3 8-2.2 3.6-.5 6.4 2.6 9.4 2.9 2.8 9.7 7.1 17.2 9.7a27 27 0 0 0 15 1.3h.3l2.3-.7c5-1.6 9.3-4.4 11.4-6.7 3.6-4.5 1-8-3.2-11.6Zm-16 11.9c-4.4-1.2-10.5-5-14-7.3l-.3-.1c-1.3-1-2.6-1.7-3.6-3.2-1.6-2.3.5-4 3.1-4.5 3.6-.7 7.2.9 12.7 3.8h.2c3 1.7 11.3 6.1 10.6 9.2-.5 1.9-4.1 3.3-8.8 2Zm-39.4 8.6c0 .2.3.1 1.4 0 5.8-.9 11.7-.3 16 3.6 5.3 5.2.7 9.7-5.7 13.3-6 3.3-12.5 6.4-21.7 4.1-1.7-.4-3.7-1.3-4.9-2-5.8-3.4-4.1-6.3-3.2-7.8.2-.4.4-.7.4-1a17 17 0 0 1-13.6-2c-3.1-2-3.4-5.2-1.4-8a31.9 31.9 0 0 1 21.2-9.3c11.6 0 13.9 7.6 11.5 9.1Zm4.5 7.5c-3-1.6-6.2-1.8-9-1-2 .7-3.6 1.9-3.1 4 .6 1.7 3 3 4.8 3.5 2.5.7 6 .7 8.3-.7 2-1.3 2.3-4-1-5.8Zm-18-9.3a8.9 8.9 0 0 0-6.8.7c-1.7 1-2.5 2.3-1.2 3.8a8 8 0 0 0 6.2 2c1.6-.1 3.8-1 4.8-2.1 1.5-1.9-.7-3.7-3-4.4Zm42 .4c3.2 0 5.8 1.5 5.8 3.4 0 1.8-2.6 3.3-5.9 3.3-3.2 0-5.8-1.5-5.8-3.3 0-1.9 2.6-3.4 5.9-3.4Z" clip-rule="evenodd" opacity=".3" style="mix-blend-mode:overlay"/><path fill="url(#aE)" fill-rule="evenodd" d="M345.1 14.2a56.4 56.4 0 0 0-17.3-9.1 26.4 26.4 0 0 0-15-.3c-4 1-11.1 4.5-13.3 8-2.2 3.6-.5 6.4 2.6 9.4 2.9 2.8 9.7 7.1 17.2 9.7a27 27 0 0 0 15 1.3h.3l2.3-.7c5-1.6 9.3-4.4 11.4-6.7 3.6-4.5 1-8-3.2-11.6Zm-16 11.9c-4.4-1.2-10.5-5-14-7.3l-.3-.1c-1.3-1-2.6-1.7-3.6-3.2-1.6-2.3.5-4 3.1-4.5 3.6-.7 7.2.9 12.7 3.8h.2c3 1.7 11.3 6.1 10.6 9.2-.5 1.9-4.1 3.3-8.8 2Zm-39.4 8.6c0 .2.3.1 1.4 0 5.8-.9 11.7-.3 16 3.6 5.3 5.2.7 9.7-5.7 13.3-6 3.3-12.5 6.4-21.7 4.1-1.7-.4-3.7-1.3-4.9-2-5.8-3.4-4.1-6.3-3.2-7.8.2-.4.4-.7.4-1a17 17 0 0 1-13.6-2c-3.1-2-3.4-5.2-1.4-8a31.9 31.9 0 0 1 21.2-9.3c11.6 0 13.9 7.6 11.5 9.1Zm4.5 7.5c-3-1.6-6.2-1.8-9-1-2 .7-3.6 1.9-3.1 4 .6 1.7 3 3 4.8 3.5 2.5.7 6 .7 8.3-.7 2-1.3 2.3-4-1-5.8Zm-18-9.3a8.9 8.9 0 0 0-6.8.7c-1.7 1-2.5 2.3-1.2 3.8a8 8 0 0 0 6.2 2c1.6-.1 3.8-1 4.8-2.1 1.5-1.9-.7-3.7-3-4.4Zm42 .4c3.2 0 5.8 1.5 5.8 3.4 0 1.8-2.6 3.3-5.9 3.3-3.2 0-5.8-1.5-5.8-3.3 0-1.9 2.6-3.4 5.9-3.4Z" clip-rule="evenodd" opacity=".6" style="mix-blend-mode:screen"/></g><path fill="url(#aF)" d="M346 3.8a4.3 4.3 0 0 0 0-6 4.3 4.3 0 0 0-6.1 0 4.3 4.3 0 0 0 0 6 4.3 4.3 0 0 0 6.1 0Z" style="mix-blend-mode:screen"/><path fill="url(#aG)" d="M210-66h330v330H210z" opacity=".5" style="mix-blend-mode:overlay"/><path fill="url(#aH)" fill-rule="evenodd" d="M346.7 61.4c.4 0 .7.3.8.7.1.5 0 1-.1 1.4-.4 1 0 1.4 0 2v.7c0 .3-.2.5-.4.8l-.4.8c-.6 1-2.3 1.1-3.8.8a5.1 5.1 0 0 1-2.8-1.4c-.5-.6-.4-2 .6-2 .3 0 .5 0 .8-.2l.1-1.2c0-.5.3-1 1.1-1.2l1-.1c.5-.3.4-1 1.1-1.3.4-.2 1-.2 1.6 0l.4.2Z" clip-rule="evenodd"/><g style="mix-blend-mode:screen"><path fill="url(#aI)" d="M1600 31.6c0 .4-.3.8-.8.8h-19.7a3.3 3.3 0 0 1-6.4 0h-34.7a3.3 3.3 0 0 1-6.4 0h-34.7a3.3 3.3 0 0 1-6.4 0H1456a3.3 3.3 0 0 1-6.4 0H1415a3.3 3.3 0 0 1-3.2 2.5c-1.6 0-2.9-1-3.2-2.5h-34.7a3.3 3.3 0 0 1-6.5 0h-34.7a3.3 3.3 0 0 1-6.4 0h-34.7a3.3 3.3 0 0 1-6.4 0h-11.6a.8.8 0 1 1 0-1.6h11.6a3.3 3.3 0 0 1 6.4 0h34.7a3.3 3.3 0 0 1 6.4 0h34.7a3.3 3.3 0 0 1 6.4 0h34.8a3.3 3.3 0 0 1 6.4 0h34.7a3.3 3.3 0 0 1 6.4 0h34.7a3.3 3.3 0 0 1 6.5 0h34.7a3.3 3.3 0 0 1 6.4 0h34.7a3.3 3.3 0 0 1 6.4 0h19.7c.5 0 .8.4.8.8Z"/><g filter="url(#aJ)"><use xlink:href="#reuse-13"/></g><g filter="url(#aK)"><use xlink:href="#reuse-14"/></g><g filter="url(#aL)"><use xlink:href="#reuse-15"/></g><g filter="url(#aM)"><use xlink:href="#reuse-16"/></g><g filter="url(#aN)"><use xlink:href="#reuse-17"/></g><g filter="url(#aO)"><use xlink:href="#reuse-18"/></g><g filter="url(#aP)"><use xlink:href="#reuse-19"/></g></g><path fill="url(#aQ)" fill-rule="evenodd" d="M1412 8h64v5h-64V8Zm0 8h-62v5h62v-5Zm-124 5h42v5h-42v-5Zm41 24v-5h42v5h-42Zm124-6h-41v5h41v-5Zm-23 9h64v5h-64v-5Zm85-32h-64v5h64v-5Z" clip-rule="evenodd" style="mix-blend-mode:screen"/><g style="mix-blend-mode:screen"><path fill="url(#aR)" d="M1600 31.6c0 .4-.3.8-.8.8h-19.7a3.3 3.3 0 0 1-6.4 0h-34.7a3.3 3.3 0 0 1-6.4 0h-34.7a3.3 3.3 0 0 1-6.4 0H1456a3.3 3.3 0 0 1-6.4 0H1415a3.3 3.3 0 0 1-3.2 2.5c-1.6 0-2.9-1-3.2-2.5h-34.7a3.3 3.3 0 0 1-6.5 0h-34.7a3.3 3.3 0 0 1-6.4 0h-34.7a3.3 3.3 0 0 1-6.4 0h-11.6a.8.8 0 1 1 0-1.6h11.6a3.3 3.3 0 0 1 6.4 0h34.7a3.3 3.3 0 0 1 6.4 0h34.7a3.3 3.3 0 0 1 6.4 0h34.8a3.3 3.3 0 0 1 6.4 0h34.7a3.3 3.3 0 0 1 6.4 0h34.7a3.3 3.3 0 0 1 6.5 0h34.7a3.3 3.3 0 0 1 6.4 0h34.7a3.3 3.3 0 0 1 6.4 0h19.7c.5 0 .8.4.8.8Z"/><g filter="url(#aS)"><use xlink:href="#reuse-13"/></g><g filter="url(#aT)"><use xlink:href="#reuse-14"/></g><g filter="url(#aU)"><use xlink:href="#reuse-15"/></g><g filter="url(#aV)"><use xlink:href="#reuse-16"/></g><g filter="url(#aW)"><use xlink:href="#reuse-17"/></g><g filter="url(#aX)"><use xlink:href="#reuse-18"/></g><g filter="url(#aY)"><use xlink:href="#reuse-19"/></g></g><path fill="url(#aZ)" fill-rule="evenodd" d="M1412 8h64v5h-64V8Zm0 8h-62v5h62v-5Zm-124 5h42v5h-42v-5Zm41 24v-5h42v5h-42Zm124-6h-41v5h41v-5Zm-23 9h64v5h-64v-5Zm85-32h-64v5h64v-5Z" clip-rule="evenodd" style="mix-blend-mode:screen"/></g><defs><linearGradient id="b" x1="262.7" x2="149.4" y1="-7" y2="61.5" gradientUnits="userSpaceOnUse"><stop stop-color="#00F3FF"/><stop offset=".5" stop-color="#A0F"/><stop offset="1" stop-color="#1E0A78"/></linearGradient><linearGradient id="c" x1="262.7" x2="149.4" y1="-7" y2="61.5" gradientUnits="userSpaceOnUse"><stop stop-color="#00F3FF"/><stop offset=".5" stop-color="#A0F"/><stop offset="1" stop-color="#1E0A78"/></linearGradient><linearGradient id="d" x1="300.3" x2="234.7" y1="60.7" y2="109.2" gradientUnits="userSpaceOnUse"><stop stop-color="#F0F" stop-opacity="0"/><stop offset="1" stop-color="#F0F"/></linearGradient><linearGradient id="e" x1="304.6" x2="307.8" y1="49.7" y2="113.6" gradientUnits="userSpaceOnUse"><stop stop-color="#A0F" stop-opacity="0"/><stop offset="1" stop-color="#00A3D7"/></linearGradient><linearGradient id="f" x1="291.4" x2="291.4" y1="31.1" y2="37" gradientUnits="userSpaceOnUse"><stop stop-color="#A0F"/><stop offset="1" stop-color="#00A3D7"/></linearGradient><linearGradient id="g" x1="324.2" x2="324.2" y1="10.8" y2="26.5" gradientUnits="userSpaceOnUse"><stop stop-color="#A0F"/><stop offset="1" stop-color="#00A3D7"/></linearGradient><linearGradient id="h" x1="328.7" x2="328.7" y1="14.8" y2="26.4" gradientUnits="userSpaceOnUse"><stop stop-color="#A0F"/><stop offset="1" stop-color="#00A3D7"/></linearGradient><linearGradient id="i" x1="337" x2="337" y1="20.8" y2="25.2" gradientUnits="userSpaceOnUse"><stop stop-color="#A0F"/><stop offset="1" stop-color="#00A3D7"/></linearGradient><linearGradient id="j" x1="319.8" x2="319.8" y1="11.4" y2="22.2" gradientUnits="userSpaceOnUse"><stop stop-color="#A0F"/><stop offset="1" stop-color="#00A3D7"/></linearGradient><linearGradient id="k" x1="311.5" x2="311.5" y1="11.8" y2="16.8" gradientUnits="userSpaceOnUse"><stop stop-color="#A0F"/><stop offset="1" stop-color="#00A3D7"/></linearGradient><linearGradient id="l" x1="324.2" x2="324.2" y1="15.7" y2="75.7" gradientUnits="userSpaceOnUse"><stop stop-color="#A0F"/><stop offset="1" stop-color="#00A3D7"/></linearGradient><linearGradient id="m" x1="339.1" x2="339.1" y1="31.3" y2="74.6" gradientUnits="userSpaceOnUse"><stop stop-color="#A0F"/><stop offset="1" stop-color="#00A3D7"/></linearGradient><linearGradient id="n" x1="348.1" x2="348.1" y1="21.5" y2="68.6" gradientUnits="userSpaceOnUse"><stop stop-color="#A0F"/><stop offset="1" stop-color="#00A3D7"/></linearGradient><linearGradient id="o" x1="329.1" x2="329.1" y1="33.5" y2="75.7" gradientUnits="userSpaceOnUse"><stop stop-color="#A0F"/><stop offset="1" stop-color="#00A3D7"/></linearGradient><linearGradient id="p" x1="300.3" x2="300.3" y1="15.9" y2="62.1" gradientUnits="userSpaceOnUse"><stop stop-color="#A0F"/><stop offset="1" stop-color="#00A3D7"/></linearGradient><linearGradient id="q" x1="309.1" x2="309.1" y1="25.4" y2="70.1" gradientUnits="userSpaceOnUse"><stop stop-color="#A0F"/><stop offset="1" stop-color="#00A3D7"/></linearGradient><linearGradient id="r" x1="319.1" x2="319.1" y1="31.1" y2="74.5" gradientUnits="userSpaceOnUse"><stop stop-color="#A0F"/><stop offset="1" stop-color="#00A3D7"/></linearGradient><linearGradient id="s" x1="290.1" x2="290.1" y1="42.9" y2="98.6" gradientUnits="userSpaceOnUse"><stop stop-color="#A0F"/><stop offset="1" stop-color="#00A3D7"/></linearGradient><linearGradient id="t" x1="289.3" x2="289.3" y1="40.2" y2="49.7" gradientUnits="userSpaceOnUse"><stop stop-color="#A0F"/><stop offset="1" stop-color="#00A3D7"/></linearGradient><linearGradient id="u" x1="264.1" x2="264.1" y1="38.9" y2="87.6" gradientUnits="userSpaceOnUse"><stop stop-color="#A0F"/><stop offset="1" stop-color="#00A3D7"/></linearGradient><linearGradient id="v" x1="263.2" x2="263.2" y1="48.6" y2="58.2" gradientUnits="userSpaceOnUse"><stop stop-color="#A0F"/><stop offset="1" stop-color="#00A3D7"/></linearGradient><linearGradient id="w" x1="263.2" x2="263.2" y1="60.1" y2="70.1" gradientUnits="userSpaceOnUse"><stop stop-color="#A0F"/><stop offset="1" stop-color="#00A3D7"/></linearGradient><linearGradient id="x" x1="273.6" x2="273.6" y1="31.4" y2="40.6" gradientUnits="userSpaceOnUse"><stop stop-color="#A0F"/><stop offset="1" stop-color="#00A3D7"/></linearGradient><linearGradient id="y" x1="281.6" x2="281.6" y1="33.4" y2="49.2" gradientUnits="userSpaceOnUse"><stop stop-color="#A0F"/><stop offset="1" stop-color="#00A3D7"/></linearGradient><linearGradient id="z" x1="307.2" x2="307.2" y1="35.7" y2="40.9" gradientUnits="userSpaceOnUse"><stop stop-color="#FF7BFF"/><stop offset="0" stop-color="#F46BFF"/><stop offset=".1" stop-color="#D945FF"/><stop offset=".2" stop-color="#C527FF"/><stop offset=".3" stop-color="#B611FF"/><stop offset=".4" stop-color="#AD04FF"/><stop offset=".5" stop-color="#A0F"/><stop offset=".6" stop-color="#A601FB"/><stop offset=".7" stop-color="#9A04F0"/><stop offset=".8" stop-color="#8608DE"/><stop offset=".9" stop-color="#690EC5"/><stop offset="1" stop-color="#4516A4"/><stop offset="1" stop-color="#311B92"/></linearGradient><linearGradient id="A" x1="256.5" x2="262.6" y1="28.4" y2="34.5" gradientUnits="userSpaceOnUse"><stop stop-color="#FF7BFF"/><stop offset="0" stop-color="#F46BFF"/><stop offset=".1" stop-color="#D945FF"/><stop offset=".2" stop-color="#C527FF"/><stop offset=".3" stop-color="#B611FF"/><stop offset=".4" stop-color="#AD04FF"/><stop offset=".5" stop-color="#A0F"/><stop offset=".6" stop-color="#A601FB"/><stop offset=".7" stop-color="#9A04F0"/><stop offset=".8" stop-color="#8608DE"/><stop offset=".9" stop-color="#690EC5"/><stop offset="1" stop-color="#4516A4"/><stop offset="1" stop-color="#311B92"/></linearGradient><linearGradient id="B" x1="318.2" x2="318.2" y1="36.5" y2="84.1" gradientUnits="userSpaceOnUse"><stop stop-color="#A0F"/><stop offset="1" stop-color="#00A3D7"/></linearGradient><linearGradient id="C" x1="302.9" x2="302.9" y1="3.9" y2="64.2" gradientUnits="userSpaceOnUse"><stop stop-color="#00E9FF"/><stop offset="1" stop-color="#A0F"/></linearGradient><linearGradient id="D" x1="302.9" x2="302.9" y1="3.9" y2="64.2" gradientUnits="userSpaceOnUse"><stop stop-color="#00E9FF"/><stop offset="1" stop-color="#A0F"/></linearGradient><linearGradient id="E" x1="302.9" x2="302.9" y1="3.9" y2="64.2" gradientUnits="userSpaceOnUse"><stop stop-color="#00E9FF"/><stop offset="1" stop-color="#A0F"/></linearGradient><linearGradient id="F" x1="291.4" x2="291.4" y1="31.1" y2="37" gradientUnits="userSpaceOnUse"><stop stop-color="#A0F"/><stop offset="1" stop-color="#00A3D7"/></linearGradient><linearGradient id="G" x1="324.2" x2="324.2" y1="10.8" y2="26.5" gradientUnits="userSpaceOnUse"><stop stop-color="#A0F"/><stop offset="1" stop-color="#00A3D7"/></linearGradient><linearGradient id="H" x1="328.7" x2="328.7" y1="14.8" y2="26.4" gradientUnits="userSpaceOnUse"><stop stop-color="#A0F"/><stop offset="1" stop-color="#00A3D7"/></linearGradient><linearGradient id="I" x1="337" x2="337" y1="20.8" y2="25.2" gradientUnits="userSpaceOnUse"><stop stop-color="#A0F"/><stop offset="1" stop-color="#00A3D7"/></linearGradient><linearGradient id="J" x1="319.8" x2="319.8" y1="11.4" y2="22.2" gradientUnits="userSpaceOnUse"><stop stop-color="#A0F"/><stop offset="1" stop-color="#00A3D7"/></linearGradient><linearGradient id="K" x1="311.5" x2="311.5" y1="11.8" y2="16.8" gradientUnits="userSpaceOnUse"><stop stop-color="#A0F"/><stop offset="1" stop-color="#00A3D7"/></linearGradient><linearGradient id="L" x1="324.2" x2="324.2" y1="15.7" y2="75.7" gradientUnits="userSpaceOnUse"><stop stop-color="#A0F"/><stop offset="1" stop-color="#00A3D7"/></linearGradient><linearGradient id="M" x1="339.1" x2="339.1" y1="31.3" y2="74.6" gradientUnits="userSpaceOnUse"><stop stop-color="#A0F"/><stop offset="1" stop-color="#00A3D7"/></linearGradient><linearGradient id="N" x1="348.1" x2="348.1" y1="21.5" y2="68.6" gradientUnits="userSpaceOnUse"><stop stop-color="#A0F"/><stop offset="1" stop-color="#00A3D7"/></linearGradient><linearGradient id="O" x1="329.1" x2="329.1" y1="33.5" y2="75.7" gradientUnits="userSpaceOnUse"><stop stop-color="#A0F"/><stop offset="1" stop-color="#00A3D7"/></linearGradient><linearGradient id="P" x1="300.3" x2="300.3" y1="15.9" y2="62.1" gradientUnits="userSpaceOnUse"><stop stop-color="#A0F"/><stop offset="1" stop-color="#00A3D7"/></linearGradient><linearGradient id="Q" x1="309.1" x2="309.1" y1="25.4" y2="70.1" gradientUnits="userSpaceOnUse"><stop stop-color="#A0F"/><stop offset="1" stop-color="#00A3D7"/></linearGradient><linearGradient id="R" x1="319.1" x2="319.1" y1="31.1" y2="74.5" gradientUnits="userSpaceOnUse"><stop stop-color="#A0F"/><stop offset="1" stop-color="#00A3D7"/></linearGradient><linearGradient id="S" x1="290.1" x2="290.1" y1="42.9" y2="98.6" gradientUnits="userSpaceOnUse"><stop stop-color="#A0F"/><stop offset="1" stop-color="#00A3D7"/></linearGradient><linearGradient id="T" x1="289.3" x2="289.3" y1="40.2" y2="49.7" gradientUnits="userSpaceOnUse"><stop stop-color="#A0F"/><stop offset="1" stop-color="#00A3D7"/></linearGradient><linearGradient id="U" x1="264.1" x2="264.1" y1="38.9" y2="87.6" gradientUnits="userSpaceOnUse"><stop stop-color="#A0F"/><stop offset="1" stop-color="#00A3D7"/></linearGradient><linearGradient id="V" x1="263.2" x2="263.2" y1="48.6" y2="58.2" gradientUnits="userSpaceOnUse"><stop stop-color="#A0F"/><stop offset="1" stop-color="#00A3D7"/></linearGradient><linearGradient id="W" x1="263.2" x2="263.2" y1="60.1" y2="70.1" gradientUnits="userSpaceOnUse"><stop stop-color="#A0F"/><stop offset="1" stop-color="#00A3D7"/></linearGradient><linearGradient id="X" x1="273.6" x2="273.6" y1="31.4" y2="40.6" gradientUnits="userSpaceOnUse"><stop stop-color="#A0F"/><stop offset="1" stop-color="#00A3D7"/></linearGradient><linearGradient id="Y" x1="281.6" x2="281.6" y1="33.4" y2="49.2" gradientUnits="userSpaceOnUse"><stop stop-color="#A0F"/><stop offset="1" stop-color="#00A3D7"/></linearGradient><linearGradient id="Z" x1="307.2" x2="307.2" y1="35.7" y2="40.9" gradientUnits="userSpaceOnUse"><stop stop-color="#FF7BFF"/><stop offset="0" stop-color="#F46BFF"/><stop offset=".1" stop-color="#D945FF"/><stop offset=".2" stop-color="#C527FF"/><stop offset=".3" stop-color="#B611FF"/><stop offset=".4" stop-color="#AD04FF"/><stop offset=".5" stop-color="#A0F"/><stop offset=".6" stop-color="#A601FB"/><stop offset=".7" stop-color="#9A04F0"/><stop offset=".8" stop-color="#8608DE"/><stop offset=".9" stop-color="#690EC5"/><stop offset="1" stop-color="#4516A4"/><stop offset="1" stop-color="#311B92"/></linearGradient><linearGradient id="aa" x1="256.5" x2="262.6" y1="28.4" y2="34.5" gradientUnits="userSpaceOnUse"><stop stop-color="#FF7BFF"/><stop offset="0" stop-color="#F46BFF"/><stop offset=".1" stop-color="#D945FF"/><stop offset=".2" stop-color="#C527FF"/><stop offset=".3" stop-color="#B611FF"/><stop offset=".4" stop-color="#AD04FF"/><stop offset=".5" stop-color="#A0F"/><stop offset=".6" stop-color="#A601FB"/><stop offset=".7" stop-color="#9A04F0"/><stop offset=".8" stop-color="#8608DE"/><stop offset=".9" stop-color="#690EC5"/><stop offset="1" stop-color="#4516A4"/><stop offset="1" stop-color="#311B92"/></linearGradient><linearGradient id="ab" x1="318.2" x2="318.2" y1="36.5" y2="84.1" gradientUnits="userSpaceOnUse"><stop stop-color="#A0F"/><stop offset="1" stop-color="#00A3D7"/></linearGradient><linearGradient id="ac" x1="302.9" x2="302.9" y1="3.9" y2="64.2" gradientUnits="userSpaceOnUse"><stop stop-color="#00E9FF"/><stop offset="1" stop-color="#A0F"/></linearGradient><linearGradient id="ad" x1="302.9" x2="302.9" y1="3.9" y2="64.2" gradientUnits="userSpaceOnUse"><stop stop-color="#00E9FF"/><stop offset="1" stop-color="#A0F"/></linearGradient><linearGradient id="ae" x1="302.9" x2="302.9" y1="3.9" y2="64.2" gradientUnits="userSpaceOnUse"><stop stop-color="#00E9FF"/><stop offset="1" stop-color="#A0F"/></linearGradient><linearGradient id="af" x1="291.4" x2="291.4" y1="31.1" y2="37" gradientUnits="userSpaceOnUse"><stop stop-color="#A0F"/><stop offset="1" stop-color="#00A3D7"/></linearGradient><linearGradient id="ag" x1="324.2" x2="324.2" y1="10.8" y2="26.5" gradientUnits="userSpaceOnUse"><stop stop-color="#A0F"/><stop offset="1" stop-color="#00A3D7"/></linearGradient><linearGradient id="ah" x1="328.7" x2="328.7" y1="14.8" y2="26.4" gradientUnits="userSpaceOnUse"><stop stop-color="#A0F"/><stop offset="1" stop-color="#00A3D7"/></linearGradient><linearGradient id="ai" x1="337" x2="337" y1="20.8" y2="25.2" gradientUnits="userSpaceOnUse"><stop stop-color="#A0F"/><stop offset="1" stop-color="#00A3D7"/></linearGradient><linearGradient id="aj" x1="319.8" x2="319.8" y1="11.4" y2="22.2" gradientUnits="userSpaceOnUse"><stop stop-color="#A0F"/><stop offset="1" stop-color="#00A3D7"/></linearGradient><linearGradient id="ak" x1="311.5" x2="311.5" y1="11.8" y2="16.8" gradientUnits="userSpaceOnUse"><stop stop-color="#A0F"/><stop offset="1" stop-color="#00A3D7"/></linearGradient><linearGradient id="al" x1="324.2" x2="324.2" y1="15.7" y2="75.7" gradientUnits="userSpaceOnUse"><stop stop-color="#A0F"/><stop offset="1" stop-color="#00A3D7"/></linearGradient><linearGradient id="am" x1="339.1" x2="339.1" y1="31.3" y2="74.6" gradientUnits="userSpaceOnUse"><stop stop-color="#A0F"/><stop offset="1" stop-color="#00A3D7"/></linearGradient><linearGradient id="an" x1="348.1" x2="348.1" y1="21.5" y2="68.6" gradientUnits="userSpaceOnUse"><stop stop-color="#A0F"/><stop offset="1" stop-color="#00A3D7"/></linearGradient><linearGradient id="ao" x1="329.1" x2="329.1" y1="33.5" y2="75.7" gradientUnits="userSpaceOnUse"><stop stop-color="#A0F"/><stop offset="1" stop-color="#00A3D7"/></linearGradient><linearGradient id="ap" x1="300.3" x2="300.3" y1="15.9" y2="62.1" gradientUnits="userSpaceOnUse"><stop stop-color="#A0F"/><stop offset="1" stop-color="#00A3D7"/></linearGradient><linearGradient id="aq" x1="309.1" x2="309.1" y1="25.4" y2="70.1" gradientUnits="userSpaceOnUse"><stop stop-color="#A0F"/><stop offset="1" stop-color="#00A3D7"/></linearGradient><linearGradient id="ar" x1="319.1" x2="319.1" y1="31.1" y2="74.5" gradientUnits="userSpaceOnUse"><stop stop-color="#A0F"/><stop offset="1" stop-color="#00A3D7"/></linearGradient><linearGradient id="as" x1="290.1" x2="290.1" y1="42.9" y2="98.6" gradientUnits="userSpaceOnUse"><stop stop-color="#A0F"/><stop offset="1" stop-color="#00A3D7"/></linearGradient><linearGradient id="at" x1="289.3" x2="289.3" y1="40.2" y2="49.7" gradientUnits="userSpaceOnUse"><stop stop-color="#A0F"/><stop offset="1" stop-color="#00A3D7"/></linearGradient><linearGradient id="au" x1="264.1" x2="264.1" y1="38.9" y2="87.6" gradientUnits="userSpaceOnUse"><stop stop-color="#A0F"/><stop offset="1" stop-color="#00A3D7"/></linearGradient><linearGradient id="av" x1="263.2" x2="263.2" y1="48.6" y2="58.2" gradientUnits="userSpaceOnUse"><stop stop-color="#A0F"/><stop offset="1" stop-color="#00A3D7"/></linearGradient><linearGradient id="aw" x1="263.2" x2="263.2" y1="60.1" y2="70.1" gradientUnits="userSpaceOnUse"><stop stop-color="#A0F"/><stop offset="1" stop-color="#00A3D7"/></linearGradient><linearGradient id="ax" x1="273.6" x2="273.6" y1="31.4" y2="40.6" gradientUnits="userSpaceOnUse"><stop stop-color="#A0F"/><stop offset="1" stop-color="#00A3D7"/></linearGradient><linearGradient id="ay" x1="281.6" x2="281.6" y1="33.4" y2="49.2" gradientUnits="userSpaceOnUse"><stop stop-color="#A0F"/><stop offset="1" stop-color="#00A3D7"/></linearGradient><linearGradient id="az" x1="307.2" x2="307.2" y1="35.7" y2="40.9" gradientUnits="userSpaceOnUse"><stop stop-color="#FF7BFF"/><stop offset="0" stop-color="#F46BFF"/><stop offset=".1" stop-color="#D945FF"/><stop offset=".2" stop-color="#C527FF"/><stop offset=".3" stop-color="#B611FF"/><stop offset=".4" stop-color="#AD04FF"/><stop offset=".5" stop-color="#A0F"/><stop offset=".6" stop-color="#A601FB"/><stop offset=".7" stop-color="#9A04F0"/><stop offset=".8" stop-color="#8608DE"/><stop offset=".9" stop-color="#690EC5"/><stop offset="1" stop-color="#4516A4"/><stop offset="1" stop-color="#311B92"/></linearGradient><linearGradient id="aA" x1="256.5" x2="262.6" y1="28.4" y2="34.5" gradientUnits="userSpaceOnUse"><stop stop-color="#FF7BFF"/><stop offset="0" stop-color="#F46BFF"/><stop offset=".1" stop-color="#D945FF"/><stop offset=".2" stop-color="#C527FF"/><stop offset=".3" stop-color="#B611FF"/><stop offset=".4" stop-color="#AD04FF"/><stop offset=".5" stop-color="#A0F"/><stop offset=".6" stop-color="#A601FB"/><stop offset=".7" stop-color="#9A04F0"/><stop offset=".8" stop-color="#8608DE"/><stop offset=".9" stop-color="#690EC5"/><stop offset="1" stop-color="#4516A4"/><stop offset="1" stop-color="#311B92"/></linearGradient><linearGradient id="aB" x1="318.2" x2="318.2" y1="36.5" y2="84.1" gradientUnits="userSpaceOnUse"><stop stop-color="#A0F"/><stop offset="1" stop-color="#00A3D7"/></linearGradient><linearGradient id="aC" x1="302.9" x2="302.9" y1="3.9" y2="64.2" gradientUnits="userSpaceOnUse"><stop stop-color="#00E9FF"/><stop offset="1" stop-color="#A0F"/></linearGradient><linearGradient id="aD" x1="302.9" x2="302.9" y1="3.9" y2="64.2" gradientUnits="userSpaceOnUse"><stop stop-color="#00E9FF"/><stop offset="1" stop-color="#A0F"/></linearGradient><linearGradient id="aE" x1="302.9" x2="302.9" y1="3.9" y2="64.2" gradientUnits="userSpaceOnUse"><stop stop-color="#00E9FF"/><stop offset="1" stop-color="#A0F"/></linearGradient><linearGradient id="aF" x1="339.9" x2="346" y1="-2.2" y2="3.8" gradientUnits="userSpaceOnUse"><stop stop-color="#A0F"/><stop offset="1" stop-color="#00A3D7"/></linearGradient><linearGradient id="aH" x1="343.6" x2="343.6" y1="57.9" y2="68.8" gradientUnits="userSpaceOnUse"><stop stop-color="#1E0A78"/><stop offset="1" stop-color="#1D1A2D"/></linearGradient><linearGradient id="aI" x1="1273.1" x2="1540.5" y1="8.3" y2="8.3" gradientUnits="userSpaceOnUse"><stop stop-color="#2DFFFF"/><stop offset="1" stop-color="#F0F"/></linearGradient><linearGradient id="aQ" x1="1515" x2="1274.5" y1="8" y2="8" gradientUnits="userSpaceOnUse"><stop stop-color="#A0F"/><stop offset="1" stop-color="#2DFFFF"/></linearGradient><linearGradient id="aR" x1="1273.1" x2="1540.5" y1="8.3" y2="8.3" gradientUnits="userSpaceOnUse"><stop stop-color="#2DFFFF"/><stop offset="1" stop-color="#F0F"/></linearGradient><linearGradient id="aZ" x1="1515" x2="1274.5" y1="8" y2="8" gradientUnits="userSpaceOnUse"><stop stop-color="#A0F"/><stop offset="1" stop-color="#2DFFFF"/></linearGradient><filter id="aJ" width="7.3" height="7.3" x="1285.7" y="28.9" color-interpolation-filters="sRGB" filterUnits="userSpaceOnUse"><feFlood flood-opacity="0" result="BackgroundImageFix"/><feColorMatrix in="SourceAlpha" result="hardAlpha" values="0 0 0 0 0 0 0 0 0 0 0 0 0 0 0 0 0 0 127 0"/><feOffset dx=".9" dy=".9"/><feGaussianBlur stdDeviation=".9"/><feColorMatrix values="0 0 0 0 0 0 0 0 0 0 0 0 0 0 0 0 0 0 0.15 0"/><feBlend in2="BackgroundImageFix" result="effect1_dropShadow_50_8"/><feBlend in="SourceGraphic" in2="effect1_dropShadow_50_8" result="shape"/></filter><filter id="aK" width="7.3" height="7.3" x="1326.8" y="28.9" color-interpolation-filters="sRGB" filterUnits="userSpaceOnUse"><feFlood flood-opacity="0" result="BackgroundImageFix"/><feColorMatrix in="SourceAlpha" result="hardAlpha" values="0 0 0 0 0 0 0 0 0 0 0 0 0 0 0 0 0 0 127 0"/><feOffset dx=".9" dy=".9"/><feGaussianBlur stdDeviation=".9"/><feColorMatrix values="0 0 0 0 0 0 0 0 0 0 0 0 0 0 0 0 0 0 0.15 0"/><feBlend in2="BackgroundImageFix" result="effect1_dropShadow_50_8"/><feBlend in="SourceGraphic" in2="effect1_dropShadow_50_8" result="shape"/></filter><filter id="aL" width="7.3" height="7.3" x="1409.1" y="28.9" color-interpolation-filters="sRGB" filterUnits="userSpaceOnUse"><feFlood flood-opacity="0" result="BackgroundImageFix"/><feColorMatrix in="SourceAlpha" result="hardAlpha" values="0 0 0 0 0 0 0 0 0 0 0 0 0 0 0 0 0 0 127 0"/><feOffset dx=".9" dy=".9"/><feGaussianBlur stdDeviation=".9"/><feColorMatrix values="0 0 0 0 0 0 0 0 0 0 0 0 0 0 0 0 0 0 0.15 0"/><feBlend in2="BackgroundImageFix" result="effect1_dropShadow_50_8"/><feBlend in="SourceGraphic" in2="effect1_dropShadow_50_8" result="shape"/></filter><filter id="aM" width="7.3" height="7.3" x="1491.4" y="28.9" color-interpolation-filters="sRGB" filterUnits="userSpaceOnUse"><feFlood flood-opacity="0" result="BackgroundImageFix"/><feColorMatrix in="SourceAlpha" result="hardAlpha" values="0 0 0 0 0 0 0 0 0 0 0 0 0 0 0 0 0 0 127 0"/><feOffset dx=".9" dy=".9"/><feGaussianBlur stdDeviation=".9"/><feColorMatrix values="0 0 0 0 0 0 0 0 0 0 0 0 0 0 0 0 0 0 0.15 0"/><feBlend in2="BackgroundImageFix" result="effect1_dropShadow_50_8"/><feBlend in="SourceGraphic" in2="effect1_dropShadow_50_8" result="shape"/></filter><filter id="aN" width="7.3" height="7.3" x="1532.5" y="28.9" color-interpolation-filters="sRGB" filterUnits="userSpaceOnUse"><feFlood flood-opacity="0" result="BackgroundImageFix"/><feColorMatrix in="SourceAlpha" result="hardAlpha" values="0 0 0 0 0 0 0 0 0 0 0 0 0 0 0 0 0 0 127 0"/><feOffset dx=".9" dy=".9"/><feGaussianBlur stdDeviation=".9"/><feColorMatrix values="0 0 0 0 0 0 0 0 0 0 0 0 0 0 0 0 0 0 0.15 0"/><feBlend in2="BackgroundImageFix" result="effect1_dropShadow_50_8"/><feBlend in="SourceGraphic" in2="effect1_dropShadow_50_8" result="shape"/></filter><filter id="aO" width="7.3" height="7.3" x="1450.2" y="28.9" color-interpolation-filters="sRGB" filterUnits="userSpaceOnUse"><feFlood flood-opacity="0" result="BackgroundImageFix"/><feColorMatrix in="SourceAlpha" result="hardAlpha" values="0 0 0 0 0 0 0 0 0 0 0 0 0 0 0 0 0 0 127 0"/><feOffset dx=".9" dy=".9"/><feGaussianBlur stdDeviation=".9"/><feColorMatrix values="0 0 0 0 0 0 0 0 0 0 0 0 0 0 0 0 0 0 0.15 0"/><feBlend in2="BackgroundImageFix" result="effect1_dropShadow_50_8"/><feBlend in="SourceGraphic" in2="effect1_dropShadow_50_8" result="shape"/></filter><filter id="aP" width="7.3" height="7.3" x="1368" y="28.9" color-interpolation-filters="sRGB" filterUnits="userSpaceOnUse"><feFlood flood-opacity="0" result="BackgroundImageFix"/><feColorMatrix in="SourceAlpha" result="hardAlpha" values="0 0 0 0 0 0 0 0 0 0 0 0 0 0 0 0 0 0 127 0"/><feOffset dx=".9" dy=".9"/><feGaussianBlur stdDeviation=".9"/><feColorMatrix values="0 0 0 0 0 0 0 0 0 0 0 0 0 0 0 0 0 0 0.15 0"/><feBlend in2="BackgroundImageFix" result="effect1_dropShadow_50_8"/><feBlend in="SourceGraphic" in2="effect1_dropShadow_50_8" result="shape"/></filter><filter id="aS" width="7.3" height="7.3" x="1285.7" y="28.9" color-interpolation-filters="sRGB" filterUnits="userSpaceOnUse"><feFlood flood-opacity="0" result="BackgroundImageFix"/><feColorMatrix in="SourceAlpha" result="hardAlpha" values="0 0 0 0 0 0 0 0 0 0 0 0 0 0 0 0 0 0 127 0"/><feOffset dx=".9" dy=".9"/><feGaussianBlur stdDeviation=".9"/><feColorMatrix values="0 0 0 0 0 0 0 0 0 0 0 0 0 0 0 0 0 0 0.15 0"/><feBlend in2="BackgroundImageFix" result="effect1_dropShadow_50_8"/><feBlend in="SourceGraphic" in2="effect1_dropShadow_50_8" result="shape"/></filter><filter id="aT" width="7.3" height="7.3" x="1326.8" y="28.9" color-interpolation-filters="sRGB" filterUnits="userSpaceOnUse"><feFlood flood-opacity="0" result="BackgroundImageFix"/><feColorMatrix in="SourceAlpha" result="hardAlpha" values="0 0 0 0 0 0 0 0 0 0 0 0 0 0 0 0 0 0 127 0"/><feOffset dx=".9" dy=".9"/><feGaussianBlur stdDeviation=".9"/><feColorMatrix values="0 0 0 0 0 0 0 0 0 0 0 0 0 0 0 0 0 0 0.15 0"/><feBlend in2="BackgroundImageFix" result="effect1_dropShadow_50_8"/><feBlend in="SourceGraphic" in2="effect1_dropShadow_50_8" result="shape"/></filter><filter id="aU" width="7.3" height="7.3" x="1409.1" y="28.9" color-interpolation-filters="sRGB" filterUnits="userSpaceOnUse"><feFlood flood-opacity="0" result="BackgroundImageFix"/><feColorMatrix in="SourceAlpha" result="hardAlpha" values="0 0 0 0 0 0 0 0 0 0 0 0 0 0 0 0 0 0 127 0"/><feOffset dx=".9" dy=".9"/><feGaussianBlur stdDeviation=".9"/><feColorMatrix values="0 0 0 0 0 0 0 0 0 0 0 0 0 0 0 0 0 0 0.15 0"/><feBlend in2="BackgroundImageFix" result="effect1_dropShadow_50_8"/><feBlend in="SourceGraphic" in2="effect1_dropShadow_50_8" result="shape"/></filter><filter id="aV" width="7.3" height="7.3" x="1491.4" y="28.9" color-interpolation-filters="sRGB" filterUnits="userSpaceOnUse"><feFlood flood-opacity="0" result="BackgroundImageFix"/><feColorMatrix in="SourceAlpha" result="hardAlpha" values="0 0 0 0 0 0 0 0 0 0 0 0 0 0 0 0 0 0 127 0"/><feOffset dx=".9" dy=".9"/><feGaussianBlur stdDeviation=".9"/><feColorMatrix values="0 0 0 0 0 0 0 0 0 0 0 0 0 0 0 0 0 0 0.15 0"/><feBlend in2="BackgroundImageFix" result="effect1_dropShadow_50_8"/><feBlend in="SourceGraphic" in2="effect1_dropShadow_50_8" result="shape"/></filter><filter id="aW" width="7.3" height="7.3" x="1532.5" y="28.9" color-interpolation-filters="sRGB" filterUnits="userSpaceOnUse"><feFlood flood-opacity="0" result="BackgroundImageFix"/><feColorMatrix in="SourceAlpha" result="hardAlpha" values="0 0 0 0 0 0 0 0 0 0 0 0 0 0 0 0 0 0 127 0"/><feOffset dx=".9" dy=".9"/><feGaussianBlur stdDeviation=".9"/><feColorMatrix values="0 0 0 0 0 0 0 0 0 0 0 0 0 0 0 0 0 0 0.15 0"/><feBlend in2="BackgroundImageFix" result="effect1_dropShadow_50_8"/><feBlend in="SourceGraphic" in2="effect1_dropShadow_50_8" result="shape"/></filter><filter id="aX" width="7.3" height="7.3" x="1450.2" y="28.9" color-interpolation-filters="sRGB" filterUnits="userSpaceOnUse"><feFlood flood-opacity="0" result="BackgroundImageFix"/><feColorMatrix in="SourceAlpha" result="hardAlpha" values="0 0 0 0 0 0 0 0 0 0 0 0 0 0 0 0 0 0 127 0"/><feOffset dx=".9" dy=".9"/><feGaussianBlur stdDeviation=".9"/><feColorMatrix values="0 0 0 0 0 0 0 0 0 0 0 0 0 0 0 0 0 0 0.15 0"/><feBlend in2="BackgroundImageFix" result="effect1_dropShadow_50_8"/><feBlend in="SourceGraphic" in2="effect1_dropShadow_50_8" result="shape"/></filter><filter id="aY" width="7.3" height="7.3" x="1368" y="28.9" color-interpolation-filters="sRGB" filterUnits="userSpaceOnUse"><feFlood flood-opacity="0" result="BackgroundImageFix"/><feColorMatrix in="SourceAlpha" result="hardAlpha" values="0 0 0 0 0 0 0 0 0 0 0 0 0 0 0 0 0 0 127 0"/><feOffset dx=".9" dy=".9"/><feGaussianBlur stdDeviation=".9"/><feColorMatrix values="0 0 0 0 0 0 0 0 0 0 0 0 0 0 0 0 0 0 0.15 0"/><feBlend in2="BackgroundImageFix" result="effect1_dropShadow_50_8"/><feBlend in="SourceGraphic" in2="effect1_dropShadow_50_8" result="shape"/></filter><radialGradient id="aG" cx="0" cy="0" r="1" gradientTransform="matrix(0 165 -165 0 375 99)" gradientUnits="userSpaceOnUse"><stop stop-color="#00F3FF"/><stop offset="1" stop-color="#00F3FF" stop-opacity="0"/></radialGradient><clipPath id="a"><path fill="#fff" d="M0 0h1615v61H0z"/></clipPath></defs></svg>